# Blender v2.67 (sub 0) OBJ File: 'chair.blend'
# www.blender.org
# texture Chair_Plane wood_texture 
o Chair_Plane
v 0.377370 0.400554 -0.406906
v -0.262510 0.400554 -0.406906
v -0.262510 0.400554 0.359976
v 0.377370 0.400554 0.359976
v -0.326771 0.400554 0.273599
v -0.326771 0.400554 -0.319723
v 0.440111 0.400554 0.273599
v 0.440111 0.400554 -0.319723
v 0.377370 0.400554 -0.319723
v 0.377370 0.400554 0.273599
v -0.262510 0.400554 -0.319723
v -0.262510 0.400554 0.273599
v 0.377370 0.331350 -0.406906
v -0.262510 0.331350 -0.406906
v -0.262510 0.331350 0.359976
v 0.377370 0.331350 0.359976
v -0.326771 0.331350 0.273599
v -0.326771 0.331350 -0.319723
v 0.440111 0.331350 0.273599
v 0.440111 0.331350 -0.319723
v 0.377370 0.331350 -0.319723
v 0.377370 0.331350 0.273599
v -0.262510 0.331350 -0.319723
v -0.262510 0.331350 0.273599
v -0.227818 0.385887 0.203891
v -0.158508 0.385887 0.203891
v -0.158508 0.385887 0.273201
v -0.227818 0.385887 0.273201
v -0.227818 0.681197 0.203891
v -0.158508 0.681197 0.203891
v -0.158508 0.681197 0.273201
v -0.227818 0.681197 0.273201
v -0.267578 0.385887 -0.059958
v -0.198268 0.385887 -0.059958
v -0.198268 0.385887 0.009352
v -0.267578 0.385887 0.009352
v -0.267578 0.681197 -0.059958
v -0.198268 0.681197 -0.059958
v -0.198268 0.681197 0.009352
v -0.267578 0.681197 0.009352
v -0.229086 0.385887 -0.326208
v -0.159776 0.385887 -0.326208
v -0.159776 0.385887 -0.256897
v -0.229086 0.385887 -0.256897
v -0.229086 0.681197 -0.326208
v -0.159776 0.681197 -0.326208
v -0.159776 0.681197 -0.256897
v -0.229086 0.681197 -0.256897
v -0.257896 0.681197 -0.365436
v -0.110129 0.681197 -0.365436
v -0.131760 0.681197 -0.217669
v -0.279526 0.681197 -0.217669
v -0.150894 0.681197 0.047009
v -0.295518 0.681197 0.047009
v -0.295808 0.681197 -0.097615
v -0.151184 0.681197 -0.097615
v -0.279442 0.681197 0.172854
v -0.138921 0.681197 0.172854
v -0.117439 0.681197 0.304238
v -0.248823 0.681197 0.304238
v -0.257896 1.100830 -0.365436
v -0.110129 1.100830 -0.365436
v -0.131760 1.100830 -0.217669
v -0.279526 1.100830 -0.217669
v -0.150894 1.100830 0.047009
v -0.295518 1.100830 0.047009
v -0.295808 1.100830 -0.097615
v -0.151184 1.100830 -0.097615
v -0.279442 1.100830 0.172854
v -0.138921 1.100830 0.172854
v -0.117439 1.100830 0.304238
v -0.248823 1.100830 0.304238
v -0.162114 0.378701 0.255218
v -0.167971 0.364112 0.184242
v -0.238636 0.381013 0.186600
v -0.232779 0.395601 0.257575
v -0.239893 0.042965 0.330644
v -0.245750 0.028377 0.259668
v -0.316414 0.045277 0.262025
v -0.310558 0.059866 0.333001
v -0.296065 0.059866 -0.394423
v -0.225090 0.045277 -0.400280
v -0.222733 0.028377 -0.329616
v -0.293708 0.042965 -0.323759
v -0.220639 0.395601 -0.316645
v -0.149664 0.381013 -0.322501
v -0.147307 0.364112 -0.251837
v -0.218282 0.378701 -0.245980
v 0.339084 0.378701 0.199050
v 0.268108 0.364112 0.204907
v 0.270465 0.381013 0.275571
v 0.341441 0.395601 0.269715
v 0.414509 0.042965 0.276829
v 0.343534 0.028377 0.282686
v 0.345891 0.045277 0.353350
v 0.416867 0.059866 0.347493
v 0.282916 0.378701 -0.302148
v 0.288772 0.364112 -0.231172
v 0.359437 0.381013 -0.233530
v 0.353580 0.395601 -0.304505
v 0.360695 0.042965 -0.377574
v 0.366551 0.028377 -0.306598
v 0.437216 0.045277 -0.308956
v 0.431359 0.059866 -0.379931
vt 0.708060 0.735145
vt 0.770855 0.735995
vt 0.708060 0.779846
vt 0.207365 0.734064
vt 0.266091 0.733793
vt 0.266091 0.778427
vt 0.207365 0.261388
vt 0.266091 0.261212
vt 0.266091 0.215663
vt 0.708060 0.262145
vt 0.708060 0.215663
vt 0.770855 0.263015
vt 0.721546 0.262145
vt 0.721546 0.215663
vt 0.784341 0.263015
vt 0.220851 0.261388
vt 0.279577 0.215663
vt 0.279577 0.261212
vt 0.279577 0.733793
vt 0.220851 0.734064
vt 0.279577 0.778427
vt 0.721546 0.735145
vt 0.721546 0.779846
vt 0.784341 0.735995
vt 0.266091 0.824351
vt 0.164164 0.261388
vt 0.164164 0.734064
vt 0.819539 0.263015
vt 0.708060 0.167413
vt 0.819539 0.735995
vt 0.708060 0.824351
vt 0.266091 0.167413
vt 0.673010 0.305906
vt 0.673407 0.274383
vt 0.688838 0.291436
vt 0.700682 0.278166
vt 0.690038 0.290186
vt 0.710839 0.304701
vt 0.690298 0.291406
vt 0.688764 0.290128
vt 0.738196 0.361604
vt 0.638109 0.361604
vt 0.479893 0.324168
vt 0.475695 0.288336
vt 0.492196 0.305561
vt 0.517847 0.285030
vt 0.491770 0.304720
vt 0.517880 0.321684
vt 0.489407 0.297748
vt 0.492225 0.307192
vt 0.434342 0.677087
vt 0.434341 0.361604
vt 0.543071 0.677087
vt 0.250228 0.324926
vt 0.255952 0.298776
vt 0.267729 0.309949
vt 0.281483 0.294096
vt 0.268927 0.309821
vt 0.285629 0.324175
vt 0.269004 0.311073
vt 0.267631 0.311130
vt 0.342910 0.361604
vt 0.230634 0.361605
vt 0.738196 0.677087
vt 0.638109 0.677087
vt 0.230634 0.251869
vt 0.342910 0.251869
vt 0.342911 0.677088
vt 0.230635 0.677088
vt 0.543071 0.361604
vt 0.638109 0.251869
vt 0.738196 0.251869
vt 0.829276 0.677087
vt 0.342911 0.756806
vt 0.434342 0.756806
vt 0.738196 0.756806
vt 0.639297 0.756806
vt 0.544134 0.756806
vt 0.434341 0.251869
vt 0.155713 0.677088
vt 0.157671 0.361605
vt 0.543071 0.251869
vt -1.042962 0.141456
vt -1.083485 0.141456
vt -1.083485 0.100932
vt -1.136818 0.142174
vt -1.136818 0.101651
vt -1.096294 0.142174
vt -0.266650 -0.577384
vt -0.307173 -0.577384
vt -0.307173 -0.774039
vt -0.412832 0.087136
vt -0.453356 0.087136
vt -0.453356 -0.109519
vt -0.301508 -0.146808
vt -0.342031 -0.146808
vt -0.301508 -0.343463
vt -0.345297 -0.343463
vt -0.385820 -0.343463
vt -0.345297 -0.540118
vt -0.342031 0.049848
vt -0.382554 0.049848
vt -0.347696 -0.577384
vt -0.388220 -0.577383
vt -0.388221 -0.774039
vt -0.223727 -0.343463
vt -0.264250 -0.343463
vt -0.264250 -0.540118
vt -0.301508 0.049848
vt -0.529867 0.151897
vt -0.570390 0.151897
vt -0.529867 0.111373
vt -0.342031 0.109416
vt -0.342031 0.149939
vt -0.382554 0.149939
vt -0.342031 0.147946
vt -0.342031 0.107423
vt -0.301508 0.147946
vt -0.301508 0.107423
vt -0.260984 0.107423
vt -0.260984 0.147946
vt -0.304774 -0.343463
vt -0.382554 -0.146808
vt -0.342031 -0.343463
vt -0.226127 -0.577384
vt -0.266650 -0.774039
vt -1.041638 0.100932
vt -1.001114 0.100932
vt -1.041638 0.141456
vt 0.572325 0.626932
vt 0.597153 0.650125
vt 0.573202 0.659180
vt 0.579007 0.813972
vt 0.545725 0.813270
vt 0.612926 0.813972
vt -0.260984 0.049848
vt 0.821460 0.361604
vt 0.230635 0.756806
vt -1.042962 0.100932
vt -1.096294 0.101651
vt -0.412832 -0.109519
vt -0.385820 -0.540118
vt -0.347698 -0.774039
vt -0.223727 -0.540118
vt -0.570390 0.111373
vt -0.382554 0.109416
vt -0.304774 -0.540118
vt -0.382554 -0.343463
vt -0.226127 -0.774039
vt -1.001114 0.141456
vt 0.549132 0.651760
vt -0.347696 -0.774039
vt -0.260984 -0.146808
vn 0.000000 1.000000 0.000000
vn -0.000000 -1.000000 -0.000000
vn 1.000000 0.000000 0.000000
vn -0.804966 0.000000 -0.593321
vn -0.000000 -0.000000 -1.000000
vn -0.802323 0.000000 0.596890
vn -0.000000 0.000000 1.000000
vn 0.809084 -0.000000 0.587693
vn -1.000000 0.000000 -0.000000
vn 0.811668 0.000000 -0.584120
vn -0.999998 0.000000 0.002003
vn -0.973903 0.000000 0.226964
vn -0.989455 0.000000 -0.144839
vn 0.999998 0.000000 -0.002003
vn 0.995504 0.000000 -0.094715
vn 0.986895 0.000000 -0.161364
vn -0.991938 0.000000 0.126722
vn 0.987163 0.000000 0.159717
vn -0.990928 0.000000 -0.134392
vn 0.989455 -0.000000 0.144839
vn 0.220472 0.951673 -0.213801
vn -0.220471 -0.951673 0.213801
vn 0.080564 0.200679 0.976339
vn 0.972061 -0.232479 -0.032427
vn -0.080564 -0.200679 -0.976339
vn -0.972061 0.232479 0.032427
vn -0.032427 0.232479 -0.972061
vn 0.976339 -0.200679 -0.080564
vn 0.032427 -0.232479 0.972061
vn -0.976339 0.200679 0.080564
vn -0.213801 -0.951673 -0.220471
vn 0.213801 0.951673 0.220472
vn -0.213801 0.951673 -0.220471
vn 0.213801 -0.951673 0.220471
vn 0.976339 0.200679 -0.080564
vn -0.032427 -0.232479 -0.972061
vn -0.976339 -0.200679 0.080564
vn 0.032426 0.232479 0.972061
vn -0.220471 0.951673 0.213801
vn 0.220471 -0.951673 -0.213801
vn -0.080564 0.200679 -0.976339
vn -0.972061 -0.232479 0.032426
vn 0.080564 -0.200679 0.976339
vn 0.972061 0.232479 -0.032427
vn 0.220471 0.951673 -0.213801
vn 0.972061 -0.232480 -0.032427
vn 0.032427 -0.232480 0.972061
vn 0.213801 0.951673 0.220471
vn -0.213801 0.951673 -0.220472
vn 0.032427 0.232479 0.972061
vn -0.220472 0.951673 0.213801
vn -0.080563 0.200679 -0.976339
vn -0.972061 -0.232479 0.032427
vn 0.972061 0.232479 -0.032426
s off
f 10/1/1 4/2/1 7/3/1
f 1/4/1 9/5/1 8/6/1
f 9/5/1 1/4/1 2/7/1
f 11/8/1 2/7/1 6/9/1
f 12/10/1 11/8/1 6/9/1
f 12/10/1 5/11/1 3/12/1
f 4/2/1 10/1/1 12/10/1
f 22/13/2 19/14/2 16/15/2
f 13/16/2 20/17/2 21/18/2
f 21/18/2 23/19/2 14/20/2
f 23/19/2 18/21/2 14/20/2
f 24/22/2 17/23/2 18/21/2
f 24/22/2 15/24/2 17/23/2
f 19/14/2 22/13/2 21/18/2
f 16/15/2 15/24/2 24/22/2
f 22/13/2 24/22/2 23/19/2
f 20/25/3 8/6/3 7/3/3
f 2/7/4 14/26/4 6/9/4
f 14/26/5 2/7/5 13/27/5
f 15/28/6 3/12/6 17/29/6
f 16/30/7 4/2/7 3/12/7
f 4/2/8 16/30/8 19/31/8
f 6/9/9 18/32/9 5/11/9
f 13/27/10 1/4/10 8/6/10
f 9/5/1 10/1/1 7/3/1
f 10/1/1 9/5/1 11/8/1
f 29/33/5 30/34/5 25/35/5
f 30/34/3 31/36/3 27/37/3
f 31/36/7 32/38/7 28/39/7
f 32/38/9 29/33/9 28/39/9
f 25/35/2 26/40/2 27/37/2
f 60/41/2 57/42/2 29/33/2
f 37/43/5 38/44/5 33/45/5
f 38/44/3 39/46/3 35/47/3
f 39/46/7 40/48/7 36/49/7
f 40/48/9 37/43/9 36/49/9
f 33/45/2 34/50/2 35/47/2
f 67/51/11 55/52/11 66/53/11
f 45/54/5 46/55/5 42/56/5
f 46/55/3 47/57/3 43/58/3
f 47/57/7 48/59/7 44/60/7
f 48/59/9 45/54/9 44/60/9
f 41/61/2 42/56/2 43/58/2
f 52/62/2 49/63/2 48/59/2
f 72/64/12 69/65/12 60/41/12
f 50/66/2 51/67/2 46/55/2
f 49/63/2 50/66/2 46/55/2
f 51/67/2 52/62/2 48/59/2
f 64/68/13 61/69/13 52/62/13
f 68/52/14 65/70/14 53/53/14
f 40/48/2 54/70/2 37/43/2
f 37/43/2 55/52/2 38/44/2
f 53/53/15 65/70/15 70/42/15
f 58/71/2 59/72/2 31/36/2
f 57/42/2 58/71/2 29/33/2
f 59/72/2 60/41/2 31/36/2
f 71/73/7 72/64/7 60/41/7
f 70/42/16 71/41/16 59/64/16
f 64/68/1 63/74/1 61/69/1
f 68/75/1 67/51/1 66/53/1
f 72/64/1 71/76/1 70/77/1
f 69/65/1 70/77/1 65/78/1
f 63/74/1 64/68/1 68/75/1
f 38/44/2 56/79/2 39/46/2
f 66/53/17 54/70/17 69/65/17
f 51/68/18 63/62/18 68/52/18
f 61/69/5 62/80/5 50/81/5
f 39/46/2 53/82/2 54/70/2
f 64/68/19 52/62/19 67/51/19
f 62/63/20 63/62/20 51/68/20
f 73/83/21 74/84/21 75/85/21
f 80/86/22 79/87/22 77/88/22
f 73/89/23 76/90/23 80/91/23
f 74/92/24 73/93/24 77/94/24
f 75/95/25 74/96/25 79/97/25
f 76/98/26 75/99/26 80/100/26
f 85/101/27 86/102/27 81/96/27
f 86/103/28 87/104/28 83/105/28
f 87/106/29 88/107/29 84/108/29
f 88/109/30 85/101/30 84/95/30
f 81/110/31 82/111/31 84/112/31
f 88/113/32 87/114/32 86/115/32
f 89/116/33 90/117/33 92/118/33
f 96/119/34 95/120/34 94/121/34
f 89/122/35 92/98/35 96/100/35
f 90/107/36 89/122/36 94/108/36
f 91/96/37 90/123/37 95/124/37
f 92/125/38 91/89/38 95/126/38
f 97/127/39 98/128/39 100/129/39
f 104/130/40 103/131/40 102/132/40
f 97/90/41 100/103/41 101/91/41
f 98/133/42 97/134/42 102/132/42
f 99/135/43 98/133/43 102/132/43
f 100/136/44 99/109/44 103/95/44
f 53/82/2 58/71/2 57/42/2
f 51/67/2 56/79/2 52/62/2
f 11/8/1 9/5/1 2/7/1
f 5/11/1 12/10/1 6/9/1
f 3/12/1 4/2/1 12/10/1
f 13/16/2 21/18/2 14/20/2
f 23/19/2 24/22/2 18/21/2
f 20/17/2 19/14/2 21/18/2
f 22/13/2 16/15/2 24/22/2
f 21/18/2 22/13/2 23/19/2
f 19/31/3 20/25/3 7/3/3
f 14/26/4 18/32/4 6/9/4
f 2/7/5 1/4/5 13/27/5
f 3/12/6 5/11/6 17/29/6
f 15/28/7 16/30/7 3/12/7
f 7/3/8 4/2/8 19/31/8
f 18/32/9 17/29/9 5/11/9
f 20/25/10 13/27/10 8/6/10
f 8/6/1 9/5/1 7/3/1
f 12/10/1 10/1/1 11/8/1
f 30/34/5 26/40/5 25/35/5
f 26/40/3 30/34/3 27/37/3
f 27/37/7 31/36/7 28/39/7
f 29/33/9 25/35/9 28/39/9
f 28/39/2 25/35/2 27/37/2
f 32/38/2 60/41/2 29/33/2
f 38/44/5 34/50/5 33/45/5
f 34/50/3 38/44/3 35/47/3
f 35/47/7 39/46/7 36/49/7
f 37/43/9 33/45/9 36/49/9
f 36/49/2 33/45/2 35/47/2
f 55/52/11 54/70/11 66/53/11
f 41/61/5 45/54/5 42/56/5
f 42/56/3 46/55/3 43/58/3
f 43/58/7 47/57/7 44/60/7
f 45/54/9 41/61/9 44/60/9
f 44/60/2 41/61/2 43/58/2
f 49/63/2 45/54/2 48/59/2
f 69/65/12 57/42/12 60/41/12
f 51/67/2 47/57/2 46/55/2
f 45/54/2 49/63/2 46/55/2
f 47/57/2 51/67/2 48/59/2
f 61/69/13 49/63/13 52/62/13
f 56/51/14 68/52/14 53/53/14
f 54/70/2 55/52/2 37/43/2
f 55/52/2 56/79/2 38/44/2
f 58/65/15 53/53/15 70/42/15
f 30/34/2 58/71/2 31/36/2
f 58/71/2 30/34/2 29/33/2
f 60/41/2 32/38/2 31/36/2
f 59/137/7 71/73/7 60/41/7
f 58/65/16 70/42/16 59/64/16
f 63/74/1 62/138/1 61/69/1
f 65/78/1 68/75/1 66/53/1
f 69/65/1 72/64/1 70/77/1
f 66/53/1 69/65/1 65/78/1
f 64/68/1 67/51/1 68/75/1
f 56/79/2 53/82/2 39/46/2
f 54/70/17 57/42/17 69/65/17
f 56/51/18 51/68/18 68/52/18
f 49/63/5 61/69/5 50/81/5
f 40/48/2 39/46/2 54/70/2
f 52/62/19 55/52/19 67/51/19
f 50/69/20 62/63/20 51/68/20
f 76/139/45 73/83/45 75/85/45
f 79/87/22 78/140/22 77/88/22
f 77/126/23 73/89/23 80/91/23
f 78/141/46 74/92/46 77/94/46
f 74/96/25 78/124/25 79/97/25
f 75/99/26 79/142/26 80/100/26
f 86/102/27 82/123/27 81/96/27
f 82/143/28 86/103/28 83/105/28
f 83/144/47 87/106/47 84/108/47
f 85/101/30 81/96/30 84/95/30
f 82/111/31 83/145/31 84/112/31
f 85/146/48 88/113/48 86/115/48
f 90/117/49 91/119/49 92/118/49
f 93/118/34 96/119/34 94/121/34
f 93/147/35 89/122/35 96/100/35
f 89/122/36 93/147/36 94/108/36
f 90/123/37 94/148/37 95/124/37
f 96/149/50 92/125/50 95/126/50
f 98/128/51 99/150/51 100/129/51
f 101/151/40 104/130/40 102/132/40
f 100/103/52 104/152/52 101/91/52
f 97/134/53 101/151/53 102/132/53
f 103/131/43 99/135/43 102/132/43
f 104/153/54 100/136/54 103/95/54
f 54/70/2 53/82/2 57/42/2
f 56/79/2 55/52/2 52/62/2
