# Blender v2.67 (sub 0) OBJ File: 'fence_wood_base.blend'
# www.blender.org
# texture Fence_base fence_texture32x32
o Fence_base
v -1.351877 0.475221 0.031611
v -1.351877 0.599088 0.031611
v -0.412736 0.488403 0.038704
v -0.412736 0.650698 0.038704
v -1.351877 0.475221 -0.014115
v -1.351877 0.599088 -0.014115
v -0.412736 0.488403 -0.021208
v -0.412736 0.650698 -0.021208
v -1.363504 0.307354 0.030898
v -1.344072 0.389866 0.030898
v -0.447162 0.089133 0.040481
v -0.391017 0.292589 0.023970
v -1.363504 0.307354 -0.000243
v -1.344072 0.389866 -0.000243
v -0.447162 0.089133 -0.041324
v -0.391017 0.292589 -0.032434
v -0.347454 0.507319 0.027838
v -0.352084 0.676934 0.029047
v 0.539381 0.496012 0.012883
v 0.533686 0.704614 0.014370
v -0.349412 0.507867 -0.000456
v -0.354042 0.677482 0.000753
v 0.536973 0.496685 -0.021914
v 0.531278 0.705287 -0.020428
v -0.315789 0.087935 0.061585
v -0.318836 0.199567 0.062381
v 0.538666 0.094281 0.047493
v 0.532261 0.328901 0.049165
v -0.317078 0.088295 0.042964
v -0.320125 0.199927 0.043759
v 0.535957 0.095038 0.008355
v 0.529553 0.329658 0.010027
v 0.633054 0.637955 -0.010069
v 0.631425 0.697645 -0.009133
v 1.423345 0.412771 0.006575
v 1.417651 0.621373 0.009847
v 0.632365 0.638148 -0.031988
v 0.630736 0.697837 -0.031052
v 1.420937 0.413444 -0.070028
v 1.415242 0.622046 -0.066756
v 0.626999 0.161401 0.045824
v 0.625370 0.101711 0.046761
v 1.429352 0.293237 0.050405
v 1.425532 0.153271 0.052600
v 0.626310 0.161208 0.023905
v 0.624681 0.101519 0.024842
v 1.427737 0.292785 -0.000994
v 1.423916 0.152820 0.001202
v -1.303832 0.008900 0.011570
v -1.242984 0.841221 0.005551
v -1.347162 0.008900 0.079393
v -1.300375 0.851541 0.081862
v -1.433825 0.008900 0.079393
v -1.397508 0.880917 0.074707
v -1.477155 0.008900 0.011569
v -1.437251 0.899974 -0.008758
v -1.450656 0.008900 -0.095773
v -1.379860 0.889653 -0.085069
v -1.330330 0.008900 -0.095773
v -1.282727 0.860277 -0.077915
v -0.274659 0.795464 -0.001672
v -0.287185 0.035107 0.009252
v -0.338889 0.778637 0.097443
v -0.345152 0.035107 0.099983
v -0.467348 0.778637 0.097443
v -0.461085 0.035107 0.099983
v -0.531577 0.795464 -0.001672
v -0.519051 0.035107 0.009252
v -0.467348 0.812292 -0.100787
v -0.477589 0.018959 -0.119032
v -0.338889 0.812292 -0.100787
v -0.328648 0.018959 -0.119032
v 0.710988 0.996583 0.004334
v 0.701166 0.028748 0.014370
v 0.652832 0.960596 0.102169
v 0.643200 0.028748 0.105102
v 0.527077 0.936925 0.101282
v 0.527267 0.028748 0.105102
v 0.459479 0.949242 0.002559
v 0.469300 0.028748 0.014370
v 0.517635 0.985229 -0.095276
v 0.643389 1.008900 -0.094388
v 0.517635 0.027511 -0.095276
v 0.643389 0.057302 -0.094388
vt 0.785709 0.734258
vt 0.778273 0.368351
vt 0.234562 0.648755
vt 0.142622 0.613076
vt 0.819539 0.613077
vt 0.137745 0.259272
vt 0.905761 1.079654
vt 0.244247 0.284423
vt 0.079141 -0.081688
vt 0.116995 1.073421
vt 0.948988 -0.081688
vt 0.705140 0.583304
vt 0.715128 0.308533
vt 0.270589 0.261296
vt 0.247728 0.654602
vt 0.774623 0.654601
vt 0.221364 0.388642
vt 0.795742 1.000300
vt 0.164739 -0.063488
vt 0.242407 0.543571
vt 0.884001 -0.063488
vt 0.176235 0.766843
vt 0.216566 0.245415
vt 0.219508 0.656405
vt 0.769195 0.255553
vt 0.792602 0.315979
vt 0.217716 0.315979
vt 0.211929 0.616013
vt 0.158135 -0.005730
vt 0.774665 0.636182
vt 0.880291 1.077182
vt 0.138420 0.965223
vt 0.829219 -0.128922
vt 0.233370 0.322497
vt 0.242094 0.726650
vt 0.785646 0.549768
vt 0.259250 0.505609
vt 0.696822 0.505988
vt 0.263015 0.277655
vt 0.172025 0.091688
vt 0.896396 0.953822
vt 0.774389 0.175324
vt 0.167201 1.051730
vt 0.826953 -0.215507
vt 0.231163 0.178265
vt 0.223785 0.537296
vt 0.768836 0.636626
vt 0.717266 0.352011
vt 0.253970 0.352009
vt 0.242879 0.593173
vt 0.085837 -0.166991
vt 0.114809 0.840313
vt 0.888173 1.098818
vt 0.931103 -0.166990
vt 0.755491 0.296178
vt 0.792891 0.716857
vt 0.308286 0.610469
vt 0.297048 0.295272
vt 0.776022 0.222842
vt 0.769860 0.514749
vt 0.206556 0.514748
vt 0.799974 0.384412
vt 0.901186 0.105254
vt 0.145160 1.035993
vt 0.583486 0.107867
vt 0.631583 0.912275
vt 0.398029 0.100921
vt 0.412713 0.911991
vt 0.202215 0.917836
vt 0.213495 0.081182
vt -0.013636 0.928044
vt 0.028127 0.072190
vt -0.232398 0.079461
vt 0.769575 0.704929
vt 0.907792 0.461767
vt 0.500472 0.704929
vt 0.843219 0.086312
vt 0.847613 0.907072
vt 1.098696 0.052697
vt 1.058192 0.907043
vt 0.981308 0.654105
vt 0.810787 0.949456
vt 0.877027 0.186659
vt 0.769107 0.907716
vt 0.470108 0.892509
vt 0.723183 0.110431
vt 0.168056 0.894365
vt 0.177988 0.114355
vt -0.130733 0.913247
vt -0.430019 0.920955
vt -0.441618 0.087190
vt 0.183853 0.348670
vt 0.488707 0.757300
vt 0.183852 0.668170
vt 1.068465 0.911744
vt 1.370382 0.920954
vt 1.069813 0.077899
vt 0.494502 0.584601
vt 0.385078 0.397312
vt 0.166231 0.397312
vt 0.909945 0.984235
vt 0.654935 0.951504
vt 0.878007 0.088656
vt 0.394119 0.928843
vt 0.397016 0.088386
vt 0.127688 0.941788
vt 0.526208 0.594521
vt 0.744847 0.205856
vt 0.526209 0.332419
vt 0.798884 0.786830
vt 0.618427 0.786825
vt 0.890060 0.631101
vt -0.114373 0.085084
vt 0.156523 0.089785
vt -0.127723 0.971248
vt -0.375640 0.108718
vt 1.176642 0.989222
vt 1.155467 0.108881
vt 0.814473 0.259273
vt 0.738523 0.393014
vt 0.787462 0.616013
vt 0.700593 0.277655
vt 0.711927 0.593175
vt 0.215547 0.222842
vt 0.927241 1.035994
vt 0.186384 -0.130392
vt -0.232402 0.934766
vt 0.776906 0.218605
vt 0.507803 0.218605
vt 0.369586 0.461767
vt 0.469746 0.949456
vt 0.299225 0.654105
vt 0.403506 0.186659
vt 0.450587 0.112679
vt -0.094614 0.115458
vt 0.488707 0.259539
vt 0.703975 0.384073
vt 0.703975 0.632766
vt 1.419868 0.088579
vt 0.056808 0.584601
vt 0.385078 0.771889
vt 0.166231 0.771889
vt 0.637511 0.089103
vt 0.963485 0.341394
vt 0.963485 0.603496
vt 0.744846 0.730059
vt 0.800281 0.442649
vt 0.528202 0.630542
vt 0.603444 0.441682
vt -0.388907 0.989222
vn -0.007552 0.000001 0.999972
vn -0.007552 -0.000001 -0.999971
vn -1.000000 0.000000 0.000000
vn 1.000000 0.000000 -0.000000
vn 0.014035 -0.999901 0.000000
vn -0.054871 0.998493 0.000000
vn -0.009901 0.002333 0.999948
vn -0.032965 0.007763 -0.999426
vn -0.973371 0.229234 0.000000
vn 0.963970 -0.266011 0.000000
vn -0.231665 -0.972796 0.000000
vn 0.101541 0.994831 -0.000000
vn 0.016776 -0.006666 0.999837
vn -0.024120 0.006465 -0.999688
vn -0.997268 -0.027710 0.068477
vn 0.997268 0.027711 -0.068476
vn -0.013058 -0.999745 -0.018439
vn -0.030872 0.999293 0.021466
vn 0.016540 -0.006673 0.999841
vn -0.040585 0.006012 -0.999158
vn -0.997267 -0.027708 0.068483
vn 0.997268 0.027710 -0.068478
vn 0.007099 -0.999778 -0.019833
vn -0.149724 0.988288 0.029479
vn -0.025719 -0.016381 0.999535
vn -0.044064 0.014467 -0.998924
vn -0.999129 -0.027758 0.031164
vn 0.999129 0.027763 -0.031164
vn -0.274035 -0.961720 0.000166
vn 0.096419 0.995324 0.005716
vn -0.008322 0.015911 0.999839
vn -0.028606 -0.014897 -0.999480
vn -0.999128 0.027764 0.031180
vn 0.999129 -0.027762 -0.031165
vn -0.162117 0.986765 -0.003574
vn 0.064253 -0.997911 0.006750
vn 0.841300 -0.057617 0.537489
vn -0.073114 0.001137 0.997323
vn -0.898604 0.039771 0.436955
vn -0.970154 0.037983 -0.239495
vn 0.282836 0.955528 0.083487
vn 0.898440 -0.041065 -0.437172
vn 0.075280 0.006067 -0.997144
vn 0.000000 -1.000000 0.000000
vn 0.839649 -0.006030 0.543095
vn -0.000000 0.003416 0.999994
vn -0.839590 -0.005216 0.543195
vn -0.840770 0.023293 -0.540891
vn -0.000000 -0.992171 0.124890
vn 0.837321 -0.021642 -0.546283
vn 0.000000 0.022993 -0.999736
vn -0.000000 0.985892 0.167380
vn 0.860149 -0.003440 0.510031
vn -0.007849 0.004204 0.999960
vn -0.824976 0.002205 0.565163
vn -0.181096 0.952998 0.242899
vn -0.915037 0.000000 -0.403370
vn 0.007058 0.000000 -0.999975
vn 0.825107 0.000000 -0.564977
vn -0.007552 -0.000001 -0.999972
vn 0.015080 0.076740 0.996937
vn -0.032242 0.052510 -0.998100
vn 0.016776 -0.006667 0.999837
vn -0.997268 -0.027709 0.068481
vn -0.013058 -0.999745 -0.018436
vn -0.030872 0.999293 0.021468
vn -0.149724 0.988288 0.029478
vn -0.999128 -0.027764 0.031180
vn 0.999128 0.027762 -0.031167
vn -0.274035 -0.961720 0.000163
vn 0.096419 0.995324 0.005717
vn -0.999129 0.027758 0.031164
vn 0.999129 -0.027764 -0.031160
vn -0.162117 0.986765 -0.003575
vn 0.064253 -0.997911 0.006749
vn 0.795370 -0.045934 0.604381
vn -0.000000 0.005373 0.999986
vn -0.841648 0.049958 0.537711
vn -0.792547 0.071067 -0.605656
vn 0.282837 0.955528 0.083487
vn 0.968299 -0.072517 -0.239037
vn 0.000000 0.020971 -0.999780
vn 0.842686 -0.005259 0.538379
vn -0.842682 -0.006147 0.538376
vn -0.952078 -0.020069 -0.305195
vn 0.950637 0.019394 -0.309698
vn -0.000000 0.985893 0.167379
vn 0.842677 -0.007016 0.538373
vn -0.000000 0.003147 0.999995
vn -0.842696 -0.002083 0.538385
vn -0.181097 0.952997 0.242899
vn -0.181097 0.952998 0.242899
vn -0.181097 0.952998 0.242898
vn -0.104482 -0.974157 -0.200256
vn -0.010440 -0.999923 0.006670
vn 0.230544 -0.973049 -0.005080
vn -0.856936 -0.015754 -0.515181
vn 0.881524 -0.013839 -0.471937
s off
f 2/1/1 1/2/1 4/3/1
f 6/4/2 8/5/2 5/6/2
f 2/1/3 6/7/3 1/2/3
f 3/8/4 7/9/4 8/10/4
f 1/2/5 5/11/5 7/9/5
f 4/3/6 8/10/6 2/1/6
f 10/12/7 9/13/7 11/14/7
f 14/15/8 16/16/8 13/17/8
f 10/12/9 14/18/9 9/13/9
f 11/14/10 15/19/10 12/20/10
f 9/13/11 13/21/11 15/19/11
f 12/20/12 16/22/12 14/18/12
f 18/23/13 17/24/13 20/25/13
f 22/26/14 24/27/14 23/28/14
f 18/23/15 22/29/15 17/24/15
f 19/30/16 23/31/16 20/25/16
f 17/24/17 21/32/17 19/30/17
f 20/25/18 24/33/18 22/29/18
f 26/34/19 25/35/19 27/36/19
f 30/37/20 32/38/20 29/39/20
f 26/34/21 30/40/21 25/35/21
f 27/36/22 31/41/22 28/42/22
f 25/35/23 29/43/23 31/41/23
f 28/42/24 32/44/24 30/40/24
f 34/45/25 33/46/25 35/47/25
f 38/48/26 40/49/26 39/50/26
f 34/45/27 38/51/27 37/52/27
f 35/47/28 39/53/28 40/54/28
f 33/46/29 37/52/29 35/47/29
f 36/55/30 40/54/30 34/45/30
f 42/56/31 44/57/31 43/58/31
f 46/59/32 45/60/32 47/61/32
f 42/56/33 41/62/33 45/63/33
f 43/58/34 44/57/34 48/64/34
f 41/62/35 43/58/35 45/63/35
f 44/57/36 42/56/36 48/64/36
f 49/65/37 50/66/37 51/67/37
f 51/67/38 52/68/38 54/69/38
f 53/70/39 54/69/39 56/71/39
f 55/72/40 56/71/40 57/73/40
f 52/74/41 50/75/41 54/76/41
f 59/77/42 60/78/42 50/66/42
f 57/79/43 58/80/43 60/78/43
f 49/81/44 51/82/44 59/83/44
f 61/84/45 63/85/45 62/86/45
f 63/85/46 65/87/46 66/88/46
f 65/87/47 67/89/47 66/88/47
f 67/89/48 69/90/48 70/91/48
f 72/92/49 68/93/49 70/94/49
f 71/95/50 61/84/50 62/86/50
f 69/96/51 71/95/51 72/97/51
f 61/98/52 71/99/52 69/100/52
f 73/101/53 75/102/53 74/103/53
f 75/102/54 77/104/54 78/105/54
f 77/104/55 79/106/55 78/105/55
f 77/107/56 81/108/56 79/109/56
f 76/110/44 78/111/44 74/112/44
f 83/113/57 80/114/57 81/115/57
f 83/113/58 81/115/58 84/116/58
f 82/117/59 73/101/59 84/118/59
f 1/2/1 3/8/1 4/3/1
f 8/5/60 7/119/60 5/6/60
f 6/7/3 5/11/3 1/2/3
f 4/3/4 3/8/4 8/10/4
f 3/8/5 1/2/5 7/9/5
f 8/10/6 6/7/6 2/1/6
f 12/20/61 10/12/61 11/14/61
f 16/16/62 15/120/62 13/17/62
f 14/18/9 13/21/9 9/13/9
f 15/19/10 16/22/10 12/20/10
f 11/14/11 9/13/11 15/19/11
f 10/12/12 12/20/12 14/18/12
f 17/24/63 19/30/63 20/25/63
f 21/121/14 22/26/14 23/28/14
f 22/29/64 21/32/64 17/24/64
f 23/31/16 24/33/16 20/25/16
f 21/32/65 23/31/65 19/30/65
f 18/23/66 20/25/66 22/29/66
f 28/42/19 26/34/19 27/36/19
f 32/38/20 31/122/20 29/39/20
f 30/40/21 29/43/21 25/35/21
f 31/41/22 32/44/22 28/42/22
f 27/36/23 25/35/23 31/41/23
f 26/34/67 28/42/67 30/40/67
f 36/55/25 34/45/25 35/47/25
f 37/123/26 38/48/26 39/50/26
f 33/46/68 34/45/68 37/52/68
f 36/55/69 35/47/69 40/54/69
f 37/52/70 39/53/70 35/47/70
f 40/54/71 38/51/71 34/45/71
f 41/62/31 42/56/31 43/58/31
f 48/124/32 46/59/32 47/61/32
f 46/125/72 42/56/72 45/63/72
f 47/126/73 43/58/73 48/64/73
f 43/58/74 47/126/74 45/63/74
f 42/56/75 46/125/75 48/64/75
f 50/66/76 52/68/76 51/67/76
f 53/70/77 51/67/77 54/69/77
f 55/72/78 53/70/78 56/71/78
f 56/71/79 58/127/79 57/73/79
f 50/75/41 60/128/41 54/76/41
f 60/128/41 58/129/41 54/76/41
f 58/129/80 56/130/80 54/76/80
f 49/65/81 59/77/81 50/66/81
f 59/77/82 57/79/82 60/78/82
f 51/82/44 53/131/44 59/83/44
f 53/131/44 55/132/44 57/133/44
f 59/83/44 53/131/44 57/133/44
f 63/85/83 64/134/83 62/86/83
f 64/134/46 63/85/46 66/88/46
f 67/89/84 68/135/84 66/88/84
f 68/135/85 67/89/85 70/91/85
f 62/136/49 68/93/49 72/92/49
f 64/137/44 66/138/44 68/93/44
f 62/136/44 64/137/44 68/93/44
f 72/97/86 71/95/86 62/86/86
f 70/139/51 69/96/51 72/97/51
f 61/98/52 69/100/52 67/140/52
f 63/141/87 61/98/87 67/140/87
f 65/142/87 63/141/87 67/140/87
f 75/102/88 76/143/88 74/103/88
f 76/143/89 75/102/89 78/105/89
f 79/106/90 80/114/90 78/105/90
f 82/144/91 81/108/91 77/107/91
f 73/145/92 82/144/92 77/107/92
f 75/146/93 73/145/93 77/107/93
f 74/112/94 78/111/94 84/147/94
f 78/111/95 80/148/95 83/149/95
f 84/147/96 78/111/96 83/149/96
f 80/114/97 79/106/97 81/115/97
f 81/115/58 82/150/58 84/116/58
f 73/101/98 74/103/98 84/118/98
