# Blender v2.67 (sub 0) OBJ File: 'grid.blend'
# www.blender.org
# texture Plane grid_texture
o Plane
v -5.000000 0.000000 5.000000
v -5.000000 0.000000 -5.000000
v 5.000000 0.000000 5.000000
v 5.000000 0.000000 -5.000000
v -0.200000 2.800000 -0.200000
v 0.200000 2.800000 -0.200000
v 0.200000 2.800000 0.200000
v -0.200000 2.800000 0.200000
v -0.200000 3.200000 -0.200000
v 0.200000 3.200000 -0.200000
v 0.200000 3.200000 0.200000
v -0.200000 3.200000 0.200000
vt -1.992564 -1.992564
vt 2.992564 -1.992564
vt 2.992564 2.992564
vt -1.992564 2.992564
vt 0.000000 0.000000
vn 0.000000 1.000000 0.000000
vn 0.000000 0.000000 -1.000000
vn 1.000000 -0.000000 0.000000
vn 0.000000 0.000000 1.000000
vn -1.000000 0.000000 0.000000
vn -0.000000 -1.000000 -0.000000
s off
f 2/1/1 1/2/1 3/3/1
f 4/4/1 2/1/1 3/3/1
f 9/5/2 10/5/2 5/5/2
f 10/5/3 11/5/3 7/5/3
f 11/5/4 12/5/4 8/5/4
f 12/5/5 9/5/5 8/5/5
f 5/5/6 6/5/6 7/5/6
f 12/5/1 11/5/1 10/5/1
f 10/5/2 6/5/2 5/5/2
f 6/5/3 10/5/3 7/5/3
f 7/5/4 11/5/4 8/5/4
f 9/5/5 5/5/5 8/5/5
f 8/5/6 5/5/6 7/5/6
f 9/5/1 12/5/1 10/5/1
