# Blender v2.67 (sub 0) OBJ File: 'heater.blend'
# www.blender.org
# texture Circle.003_Circle metal_texture
o Circle.003_Circle
v 1.022835 0.012779 -0.068537
v 0.729942 0.012779 -0.775644
v 0.022835 0.012779 -1.068537
v -0.684272 0.012779 -0.775644
v -0.977165 0.012779 -0.068537
v -0.684272 0.012779 0.638570
v 0.022835 0.012779 0.931463
v 0.729941 0.012779 0.638570
v 1.022835 0.147225 -0.068537
v 0.729942 0.147225 -0.775644
v 0.022835 0.147225 -1.068537
v -0.684272 0.147225 -0.775644
v -0.977165 0.147225 -0.068537
v -0.684272 0.147225 0.638570
v 0.022835 0.147225 0.931463
v 0.729941 0.147225 0.638570
v 0.728389 0.185980 -0.068537
v 0.521737 0.185980 -0.567439
v 0.022835 0.185980 -0.774091
v -0.476067 0.185980 -0.567439
v -0.682720 0.185980 -0.068537
v -0.476067 0.185980 0.430365
v 0.022835 0.185980 0.637017
v 0.521737 0.185980 0.430365
v 1.131121 0.526939 -0.068537
v 0.806512 0.526939 -0.852214
v 0.022835 0.526939 -1.176824
v -0.760842 0.526939 -0.852214
v -1.085452 0.526939 -0.068537
v -0.760842 0.526939 0.805539
v 0.022835 0.526939 0.971950
v 0.806512 0.526939 0.805539
v 1.131121 2.203037 -0.068537
v 0.806512 2.203037 -0.852214
v 0.022835 2.203037 -1.176824
v -0.760842 2.203037 -0.852214
v -1.085452 2.203037 -0.068537
v -0.760842 2.203037 0.805539
v 0.022835 2.203037 0.971950
v 0.806512 2.203037 0.805539
v 1.003652 2.529257 -0.068537
v 0.716377 2.529257 -0.762080
v 0.022835 2.529257 -1.049355
v -0.670708 2.529257 -0.762080
v -0.957983 2.529257 -0.068537
v -0.670708 2.529257 0.625006
v 0.022835 2.529257 0.912280
v 0.716377 2.529257 0.625006
v 0.461078 2.832980 -0.068537
v 0.332720 2.832980 -0.378422
v 0.022835 2.832980 -0.506781
v -0.287050 2.832980 -0.378422
v -0.415409 2.832980 -0.068537
v -0.287050 2.832980 0.241348
v 0.022835 2.832980 0.369707
v 0.332720 2.832980 0.241348
v 0.765879 3.039474 -0.068537
v 0.548247 3.005377 -0.600358
v 0.022835 2.923060 -0.820645
v -0.502577 2.840743 -0.600358
v -0.720209 2.806646 -0.068537
v -0.502577 2.840743 0.463284
v 0.022835 2.923060 0.683571
v 0.548246 3.005377 0.463284
v 0.709602 3.233032 -0.068457
v 0.491970 3.198936 -0.600278
v -0.033442 3.116618 -0.820566
v -0.558854 3.034301 -0.600278
v -0.776486 3.000205 -0.068457
v -0.558853 3.034302 0.463364
v -0.033442 3.116618 0.683651
v 0.491970 3.198935 0.463364
v 0.549676 3.191032 -0.077832
v 0.414577 3.181789 -0.404751
v 0.088420 3.116618 -0.540166
v -0.237737 3.094303 -0.404751
v -0.372836 3.085060 -0.077831
v -0.237737 3.094303 0.249088
v 0.088420 3.116618 0.384503
v 0.414577 3.181789 0.249088
v 0.643126 3.843258 -0.141728
v 0.508028 3.834015 -0.468647
v 0.181870 3.811700 -0.604062
v -0.144287 3.914931 -0.468647
v -0.279385 3.905688 -0.141728
v -0.144287 3.914931 0.185192
v 0.181870 3.811700 0.320606
v 0.508028 3.834015 0.185192
v 0.850278 3.682046 -0.141728
v 0.654506 3.720021 -0.623173
v 0.181870 3.811700 -0.822594
v -0.290765 3.903380 -0.623173
v -0.486537 3.941355 -0.141728
v -0.290765 3.903380 0.339718
v 0.181871 3.811700 0.539139
v 0.654506 3.720021 0.339718
v 0.920251 3.915290 -0.141728
v 0.724479 3.953265 -0.623173
v 0.251844 4.044945 -0.822594
v -0.220792 4.136624 -0.623173
v -0.416564 4.174600 -0.141728
v -0.220792 4.136624 0.339718
v 0.251844 4.044945 0.539139
v 0.724479 3.953265 0.339718
v 0.690565 3.959843 -0.141728
v 0.562067 3.984770 -0.457733
v 0.251844 4.044945 -0.588627
v -0.058379 4.105121 -0.457733
v -0.186878 4.130046 -0.141728
v -0.058379 4.105121 0.174278
v 0.251844 4.044945 0.305171
v 0.562067 3.984770 0.174278
v 0.198977 5.636454 -0.065223
v 0.084635 5.572742 -0.381228
v -0.191409 5.418927 -0.512122
v -0.467454 5.265114 -0.381228
v -0.581795 5.201402 -0.065223
v -0.467454 5.265114 0.250783
v -0.191409 5.418927 0.381676
v 0.084635 5.572742 0.250783
v -1.247136 7.712325 -0.065223
v -1.361478 7.648614 -0.381228
v -1.637522 7.494800 -0.512122
v -1.913567 7.340985 -0.381228
v -2.027908 7.277273 -0.065223
v -1.913567 7.340985 0.250783
v -1.637522 7.494800 0.381676
v -1.361478 7.648614 0.250783
v 0.615319 1.245712 0.843570
v 0.442268 1.663495 0.897809
v 0.024485 1.836546 0.986401
v -0.393298 1.663495 0.897809
v -0.566349 1.245712 0.843570
v -0.393298 0.827928 0.897809
v 0.024485 0.654877 0.986401
v 0.442268 0.827928 0.897809
v 0.615319 1.245712 1.051325
v 0.442268 1.663495 1.051325
v 0.024485 1.836546 1.051325
v -0.393298 1.663495 1.051325
v -0.566349 1.245712 1.051325
v -0.393298 0.827928 1.051325
v 0.024485 0.654877 1.051325
v 0.442268 0.827928 1.051325
v 0.464026 1.245712 1.051325
v 0.335287 1.556514 1.051325
v 0.024485 1.685252 1.051325
v -0.286317 1.556514 1.051325
v -0.415056 1.245712 1.051325
v -0.286317 0.934909 1.051325
v 0.024485 0.806171 1.051325
v 0.335287 0.934909 1.051325
v 0.464026 1.245712 0.887735
v 0.335287 1.556514 0.915307
v 0.024485 1.685252 0.976326
v -0.286317 1.556514 0.915307
v -0.415056 1.245712 0.887735
v -0.286317 0.934909 0.915307
v 0.024485 0.806171 0.976326
v 0.335287 0.934909 0.915307
v 0.729942 0.147225 -0.775644
v 1.022835 0.147225 -0.068537
v 0.022835 0.185980 -0.774091
v 0.521737 0.185980 -0.567439
v -0.476067 0.185980 -0.567439
v -0.476067 0.185980 -0.567439
v 0.806512 0.526939 -0.852214
v 0.760776 0.526939 -0.805654
v 1.066442 0.526939 -0.067713
v 0.022835 0.526939 -1.111320
v -0.760842 0.526939 -0.852214
v -0.715107 0.526939 -0.805654
v -1.020772 0.526939 -0.067713
v -0.715107 0.526939 0.755352
v 0.022835 0.526939 0.912052
v 0.760776 0.526939 0.755352
vt 0.611145 0.815443
vt 0.626482 0.822224
vt 0.547303 0.897938
vt 0.376818 0.714914
vt 0.373733 0.813478
vt 0.361478 0.708134
vt 0.543789 0.647912
vt 0.446825 0.647786
vt 0.550177 0.632402
vt 0.614236 0.716874
vt 0.630889 0.710181
vt 0.444181 0.882431
vt 0.437795 0.897938
vt 0.440642 0.632381
vt 0.541121 0.882534
vt 0.529424 0.682707
vt 0.460742 0.682462
vt 0.576684 0.800258
vt 0.578145 0.731427
vt 0.409820 0.798924
vt 0.458539 0.847642
vt 0.411279 0.730092
vt 0.527206 0.847892
vt 0.529164 0.747406
vt 0.784401 0.828831
vt 0.424377 1.014793
vt 1.890405 1.189930
vt 2.187724 1.270906
vt 2.022523 1.541256
vt 0.288979 0.618964
vt 0.180969 0.902198
vt -0.046108 0.526395
vt 1.345849 1.072732
vt 1.617760 1.133307
vt 1.255546 1.401088
vt 1.063711 0.973499
vt 0.949386 1.269041
vt 1.797675 1.464959
vt 1.727029 0.590804
vt 1.982340 0.622177
vt 1.258344 0.437619
vt 1.489959 0.533003
vt 2.285050 0.629426
vt 0.519367 0.070192
vt 0.215417 -0.105985
vt 0.996561 0.312351
vt 0.570100 -0.050123
vt 1.518515 0.433152
vt 1.742308 0.484597
vt 1.071261 0.196715
vt 1.304190 0.330713
vt 0.810188 0.071248
vt 0.762949 0.184744
vt 1.979011 0.510506
vt 2.252813 0.465613
vt 1.392113 0.096691
vt 1.590610 0.213038
vt 0.951673 -0.183219
vt 1.186278 -0.042609
vt 1.965442 0.280701
vt 2.104371 0.244967
vt 0.745257 -0.255917
vt 0.337178 -0.249573
vt 1.788016 0.266790
vt 0.218231 0.353052
vt 0.221203 0.353366
vt 0.218854 0.355476
vt 0.216843 0.354302
vt 0.264276 0.276034
vt 0.264883 0.283697
vt 0.260280 0.274751
vt 0.277762 0.268912
vt 0.269230 0.270153
vt 0.267697 0.267608
vt 0.279641 0.288438
vt 0.284613 0.282553
vt 0.281175 0.290988
vt 0.283986 0.274871
vt 0.286715 0.273689
vt 0.271100 0.289669
vt 0.262156 0.284876
vt 0.278179 0.267608
vt 0.270682 0.290973
vt 0.278230 0.286102
vt 0.282000 0.281716
vt 0.281479 0.275956
vt 0.267399 0.282620
vt 0.272023 0.286782
vt 0.270639 0.272485
vt 0.266883 0.276869
vt 0.276844 0.271799
vt 0.272427 0.285534
vt 0.277282 0.284445
vt 0.268953 0.277532
vt 0.269124 0.281822
vt 0.276440 0.273046
vt 0.271583 0.274140
vt 0.279941 0.281056
vt 0.279748 0.276753
vt 0.796007 0.369352
vt 0.616855 0.176919
vt 0.354131 0.187037
vt 0.709131 0.303684
vt 0.555338 0.298950
vt 0.443136 0.412976
vt 0.443061 0.577816
vt 0.547873 0.697065
vt 0.813936 0.578926
vt 0.702310 0.691179
vt 0.357081 0.820172
vt 0.684326 1.121820
vt -0.046108 0.855616
vt 1.543308 1.423246
vt 0.604056 -0.378618
vt 0.288614 0.283834
vt 0.612976 0.812963
vt 0.171100 0.630648
vt 0.350253 0.823081
vt 0.796007 0.628916
vt 0.171100 0.371084
vt 0.812846 0.419826
vn 0.923880 -0.000000 0.382684
vn -0.382683 0.000000 -0.923880
vn -0.923879 0.000000 0.382684
vn 0.382683 -0.000000 0.923880
vn 0.382683 0.000000 -0.923880
vn -0.923880 0.000000 -0.382683
vn -0.382683 0.000000 0.923880
vn 0.923880 0.000000 -0.382683
vn -0.130305 0.990004 0.053974
vn 0.053974 0.990004 0.130305
vn 0.053974 0.990004 -0.130305
vn -0.130305 0.990004 -0.053974
vn -0.053974 0.990004 0.130305
vn 0.130305 0.990004 -0.053974
vn 0.130305 0.990004 0.053974
vn -0.053974 0.990004 -0.130305
vn -0.149775 -0.692870 0.705335
vn 0.624177 -0.737264 -0.258543
vn 0.610266 -0.759086 0.226637
vn -0.258543 -0.737264 -0.624177
vn -0.628310 -0.742145 0.233338
vn 0.129769 -0.780830 0.611118
vn 0.258543 -0.737264 -0.624177
vn -0.624177 -0.737264 -0.258543
vn 0.382434 -0.036083 -0.923278
vn -0.923287 -0.035817 -0.382438
vn 0.923287 -0.035817 -0.382438
vn 0.936835 -0.035981 0.347917
vn -0.382434 -0.036083 -0.923278
vn -0.936835 -0.035981 0.347917
vn 0.854336 0.411637 0.317279
vn -0.359947 0.339553 -0.868989
vn -0.837082 0.423169 0.346731
vn 0.377333 0.166627 0.910964
vn 0.359947 0.339553 -0.868989
vn -0.868989 0.339554 -0.359947
vn -0.325678 0.525106 0.786256
vn 0.868989 0.339554 -0.359947
vn -0.478757 0.855258 -0.198308
vn -0.198307 0.855258 0.478757
vn 0.478757 0.855258 -0.198307
vn 0.478757 0.855258 0.198308
vn -0.198307 0.855258 -0.478757
vn -0.478757 0.855258 0.198308
vn 0.198307 0.855258 0.478757
vn 0.198307 0.855258 -0.478757
vn 0.021070 -0.998243 0.055379
vn 0.298973 -0.872191 0.387167
vn 0.298974 -0.872190 -0.387168
vn 0.021070 -0.998243 -0.055378
vn 0.034909 -0.960610 0.275698
vn 0.552346 -0.815304 -0.173760
vn 0.479345 -0.854872 0.198551
vn 0.034910 -0.960610 -0.275698
vn -0.369967 -0.107946 0.922752
vn 0.888157 0.258385 -0.380019
vn 0.888235 0.258095 0.380032
vn -0.370094 -0.107224 -0.922786
vn -0.888157 -0.258385 0.380019
vn 0.370094 0.107224 0.922786
vn 0.369967 0.107946 -0.922753
vn -0.888236 -0.258095 -0.380032
vn -0.232768 0.967899 -0.094821
vn -0.235622 0.966435 0.102401
vn -0.206666 0.976703 -0.057790
vn -0.112451 0.987762 0.108074
vn -0.141817 0.989419 0.030631
vn -0.138428 0.989941 -0.029216
vn -0.114898 0.986800 -0.114125
vn -0.204132 0.977298 0.056726
vn 0.912833 -0.167282 -0.372496
vn 0.920965 -0.094934 0.377902
vn -0.390626 -0.027162 -0.920149
vn -0.917229 0.133670 0.375263
vn 0.381103 0.035900 0.923835
vn 0.387840 -0.144747 -0.910290
vn -0.922308 0.075519 -0.379006
vn -0.344253 0.131737 0.929589
vn -0.190426 -0.981702 0.000000
vn -0.003035 -0.996995 0.077406
vn -0.113361 -0.977022 -0.180494
vn -0.603647 -0.775661 0.184281
vn -0.511129 -0.847865 -0.140965
vn -0.113362 -0.977022 0.180494
vn -0.003035 -0.996995 -0.077406
vn -0.368109 0.110432 -0.923201
vn -0.885561 0.265667 0.381054
vn 0.368109 -0.110432 0.923201
vn 0.368109 -0.110432 -0.923201
vn -0.885561 0.265667 -0.381054
vn -0.368109 0.110432 0.923201
vn 0.885561 -0.265668 -0.381054
vn 0.885561 -0.265668 0.381054
vn 0.190424 0.981702 0.000000
vn 0.190426 0.981702 0.000002
vn 0.190426 0.981701 0.000002
vn 0.190428 0.981701 0.000000
vn 0.190427 0.981701 -0.000000
vn 0.190427 0.981701 -0.000002
vn 0.190425 0.981702 0.000000
vn -0.864472 -0.329875 0.379303
vn 0.392524 0.075591 0.916630
vn 0.346916 0.163341 -0.923563
vn -0.881193 -0.285924 -0.376492
vn -0.346916 -0.163341 0.923563
vn 0.882108 0.283340 -0.376303
vn 0.893097 0.250512 0.373660
vn -0.392524 -0.075591 -0.916630
vn -0.315349 -0.219681 0.923198
vn 0.758625 0.528481 -0.381046
vn 0.758625 0.528481 0.381046
vn -0.315349 -0.219681 -0.923198
vn -0.758625 -0.528481 0.381046
vn 0.315349 0.219682 0.923198
vn 0.315350 0.219682 -0.923198
vn -0.758625 -0.528481 -0.381046
vn -0.923880 0.382683 0.000000
vn -0.382683 -0.923880 0.000000
vn 0.923880 0.382683 0.000000
vn 0.923880 -0.382683 0.000000
vn -0.382683 0.923880 0.000000
vn -0.923880 -0.382684 0.000000
vn 0.382683 -0.923880 0.000000
vn 0.382683 0.923880 0.000000
vn 0.000000 0.000000 1.000000
vn 0.923879 -0.382684 0.000000
vn -0.923879 -0.382684 0.000000
vn -0.923879 0.382684 0.000000
vn 0.923879 0.382684 0.000000
vn 0.000000 -0.428304 0.903635
vn -0.207568 0.037607 0.977497
vn 0.207639 0.027048 0.977831
vn -0.299083 0.000000 -0.954227
vn 0.201834 -0.236283 0.950491
vn -0.180786 -0.492427 0.851371
vn -0.376404 -0.035722 0.925767
vn -0.229293 -0.800621 0.553562
vn 0.624177 -0.737264 0.258543
vn -0.593574 -0.766303 0.245866
vn 0.283380 -0.672049 0.684139
vn 0.868989 0.339554 0.359947
vn -0.880246 0.343952 0.326901
vn 0.178214 0.513695 0.839260
vn -0.868989 0.339553 -0.359947
vn -0.204468 0.176126 0.962898
vn 0.868989 0.339553 -0.359947
vn -0.198308 0.855258 0.478757
vn 0.478757 0.855258 -0.198308
vn -0.198308 0.855258 -0.478757
vn 0.198308 0.855258 0.478757
vn 0.198308 0.855258 -0.478757
vn 0.086022 -0.995656 -0.035631
vn 0.113529 -0.954982 0.274082
vn 0.113529 -0.954982 -0.274082
vn 0.086022 -0.995656 0.035631
vn -0.010329 -0.999636 0.024936
vn 0.479346 -0.854871 -0.198551
vn 0.552346 -0.815304 0.173760
vn -0.010328 -0.999636 -0.024935
vn 0.888236 0.258095 0.380033
vn 0.369967 0.107946 -0.922752
vn -0.162961 0.986428 -0.020074
vn -0.163630 0.986283 0.021722
vn -0.177939 0.983993 -0.009730
vn -0.132441 0.989721 -0.053951
vn -0.256125 0.965691 0.042898
vn -0.251548 0.966978 -0.040943
vn -0.131162 0.989721 0.057003
vn -0.177507 0.984073 0.009547
vn -0.381264 -0.033667 -0.923853
vn 0.377360 0.034337 0.925430
vn 0.403100 -0.137369 -0.904788
vn -0.387608 0.115351 0.914579
vn -0.146321 -0.857240 0.493690
vn -0.168870 -0.980802 -0.097515
vn -0.301753 -0.953386 0.000000
vn -0.451761 -0.866781 0.211195
vn -0.592013 -0.760712 -0.266155
vn -0.168870 -0.980802 0.097516
vn -0.146321 -0.857239 -0.493691
vn -0.885561 0.265668 0.381054
vn -0.885561 0.265668 -0.381054
vn 0.190426 0.981702 -0.000000
vn 0.190426 0.981701 -0.000002
vn 0.190425 0.981702 -0.000001
vn 0.190425 0.981702 0.000001
vn -0.877964 -0.347169 0.329627
vn 0.400141 0.076305 0.913271
vn 0.410573 0.166631 -0.896473
vn -0.890591 -0.304137 -0.338155
vn -0.413937 -0.204479 0.887042
vn 0.897115 0.278680 -0.342815
vn 0.903833 0.249133 0.347877
vn -0.400785 -0.081151 -0.912571
vn -0.315350 -0.219682 0.923198
vn -0.315350 -0.219682 -0.923198
vn 0.315349 0.219681 0.923198
vn 0.315349 0.219682 -0.923198
vn -0.000000 0.428304 0.903635
vn 0.209419 0.000000 0.977826
vn 0.000000 0.088364 0.996088
vn -0.062483 -0.062483 0.996088
vn -0.215407 0.020227 0.976315
vn 0.222872 0.039410 0.974051
vn 0.408287 -0.000000 0.912854
vn 0.296084 -0.036658 0.954458
vn 0.365412 -0.471223 0.802760
vn -0.268554 -0.162265 0.949499
vn -0.264797 -0.015494 0.964180
vn -0.368019 -0.037860 0.929047
s off
f 16/1/1 8/2/1 1/3/1
f 12/4/2 11/5/2 4/6/2
f 14/7/3 13/8/3 6/9/3
f 16/1/4 15/10/4 7/11/4
f 11/5/5 10/12/5 2/13/5
f 13/8/6 12/4/6 5/14/6
f 15/10/7 14/7/7 7/11/7
f 10/12/8 9/15/8 1/3/8
f 22/16/9 21/17/9 14/7/9
f 24/18/10 23/19/10 15/10/10
f 19/20/11 18/21/11 161/12/11
f 21/17/12 165/22/12 13/8/12
f 23/19/13 22/16/13 15/10/13
f 18/21/14 17/23/14 162/15/14
f 24/18/15 16/1/15 162/15/15
f 20/22/16 19/20/16 12/4/16
f 31/24/17 30/25/17 23/26/17
f 26/27/18 25/28/18 17/29/18
f 32/30/19 24/31/19 25/32/19
f 28/33/20 27/34/20 166/35/20
f 30/25/21 29/36/21 21/37/21
f 32/30/22 31/24/22 24/31/22
f 27/34/23 167/27/23 164/38/23
f 29/36/24 171/33/24 21/37/24
f 35/39/25 34/40/25 170/34/25
f 37/41/26 36/42/26 173/36/26
f 34/40/27 33/43/27 168/27/27
f 40/44/28 176/30/28 33/45/28
f 36/42/29 35/39/29 172/33/29
f 38/46/30 37/41/30 173/36/30
f 48/47/31 40/44/31 33/45/31
f 44/48/32 43/49/32 36/42/32
f 46/50/33 45/51/33 38/46/33
f 48/47/34 47/52/34 39/53/34
f 43/49/35 42/54/35 34/40/35
f 45/51/36 44/48/36 37/41/36
f 47/52/37 46/50/37 38/46/37
f 42/54/38 41/55/38 33/43/38
f 53/56/39 52/57/39 45/51/39
f 55/58/40 54/59/40 47/52/40
f 50/60/41 49/61/41 41/55/41
f 56/62/42 48/47/42 41/63/42
f 52/57/43 51/64/43 44/48/43
f 54/59/44 53/56/44 46/50/44
f 56/62/45 55/58/45 47/52/45
f 51/64/46 50/60/46 42/54/46
f 62/65/47 61/65/47 54/65/47
f 64/65/48 63/65/48 56/65/48
f 59/65/49 58/65/49 50/65/49
f 61/65/50 60/65/50 52/65/50
f 63/65/51 62/65/51 55/65/51
f 58/65/52 57/65/52 49/65/52
f 64/65/53 56/65/53 49/65/53
f 60/65/54 59/65/54 51/65/54
f 71/65/55 70/65/55 63/65/55
f 66/65/56 65/65/56 58/65/56
f 72/65/57 64/65/57 65/65/57
f 68/65/58 67/65/58 59/65/58
f 70/65/59 69/65/59 62/65/59
f 72/65/60 71/65/60 63/65/60
f 67/65/61 66/65/61 59/65/61
f 69/65/62 68/65/62 60/65/62
f 80/65/63 79/65/63 71/65/63
f 75/65/64 74/65/64 67/65/64
f 77/65/65 76/65/65 69/65/65
f 79/65/66 78/65/66 70/65/66
f 74/65/67 73/65/67 66/65/67
f 80/65/68 72/65/68 73/65/68
f 76/65/69 75/65/69 68/65/69
f 78/65/70 77/65/70 69/65/70
f 82/66/71 81/66/71 74/66/71
f 88/66/72 80/66/72 73/66/72
f 84/66/73 83/66/73 76/66/73
f 86/66/74 85/66/74 78/66/74
f 88/66/75 87/66/75 80/66/75
f 83/66/76 82/66/76 74/66/76
f 85/66/77 84/66/77 77/66/77
f 87/66/78 86/66/78 79/66/78
f 91/67/79 90/67/79 83/67/79
f 93/67/80 92/67/80 84/67/80
f 95/67/81 94/67/81 86/67/81
f 90/67/82 89/67/82 81/67/82
f 96/67/83 88/67/83 89/67/83
f 92/67/84 91/67/84 84/67/84
f 94/67/85 93/67/85 86/67/85
f 96/67/79 95/67/79 87/67/79
f 100/67/86 99/67/86 92/67/86
f 102/67/87 101/67/87 93/67/87
f 104/67/88 103/67/88 96/67/88
f 99/67/89 98/67/89 90/67/89
f 101/67/90 100/67/90 93/67/90
f 103/67/91 102/67/91 94/67/91
f 98/67/92 97/67/92 89/67/92
f 104/67/93 96/67/93 89/67/93
f 109/67/94 108/67/94 100/67/94
f 111/67/95 110/67/95 102/67/95
f 106/67/96 105/67/96 97/67/96
f 112/67/97 104/67/97 97/67/97
f 108/67/98 107/67/98 99/67/98
f 110/67/99 109/67/99 101/67/99
f 112/67/100 111/67/100 103/67/100
f 107/67/94 106/67/94 99/67/94
f 118/68/101 117/68/101 110/68/101
f 120/68/102 119/68/102 111/68/102
f 115/68/103 114/68/103 107/68/103
f 117/68/104 116/68/104 108/68/104
f 119/68/105 118/68/105 111/68/105
f 114/68/106 113/68/106 106/68/106
f 120/68/107 112/68/107 113/68/107
f 116/68/108 115/68/108 107/68/108
f 127/68/109 126/68/109 119/68/109
f 122/68/110 121/68/110 114/68/110
f 128/68/111 120/68/111 121/68/111
f 124/68/112 123/68/112 115/68/112
f 126/68/113 125/68/113 118/68/113
f 128/68/114 127/68/114 119/68/114
f 123/68/115 122/68/115 115/68/115
f 125/68/116 124/68/116 116/68/116
f 141/69/117 140/70/117 133/71/117
f 143/72/118 142/73/118 134/74/118
f 138/75/119 137/76/119 130/77/119
f 144/78/120 136/79/120 137/76/120
f 140/70/121 139/80/121 132/81/121
f 142/73/122 141/69/122 133/71/122
f 144/78/123 143/72/123 135/82/123
f 139/80/124 138/75/124 131/83/124
f 146/84/125 145/85/125 137/76/125
f 152/86/125 144/78/125 137/76/125
f 148/87/125 147/88/125 139/80/125
f 150/89/125 149/90/125 141/69/125
f 152/86/125 151/91/125 143/72/125
f 147/88/125 146/84/125 138/75/125
f 149/90/125 148/87/125 140/70/125
f 151/91/125 150/89/125 142/73/125
f 155/92/118 154/93/118 147/88/118
f 157/94/126 156/95/126 149/90/126
f 159/96/124 158/97/124 150/89/124
f 154/93/127 153/98/127 146/84/127
f 160/99/128 152/86/128 153/98/128
f 156/95/123 155/92/123 148/87/123
f 158/97/129 157/94/129 149/90/129
f 160/99/121 159/96/121 151/91/121
f 154/100/130 155/101/130 156/102/130
f 131/103/131 39/53/131 38/46/131
f 130/104/132 40/44/132 39/53/132
f 129/105/133 136/106/133 130/104/133
f 176/30/134 136/106/134 175/24/134
f 175/24/135 135/107/135 174/25/135
f 133/108/136 174/25/136 134/109/136
f 9/15/1 16/1/1 1/3/1
f 11/5/2 3/110/2 4/6/2
f 13/8/3 5/14/3 6/9/3
f 8/2/4 16/1/4 7/11/4
f 3/110/5 11/5/5 2/13/5
f 12/4/6 4/6/6 5/14/6
f 14/7/7 6/9/7 7/11/7
f 2/13/8 10/12/8 1/3/8
f 21/17/9 13/8/9 14/7/9
f 16/1/10 24/18/10 15/10/10
f 11/5/11 19/20/11 161/12/11
f 165/22/12 12/4/12 13/8/12
f 22/16/13 14/7/13 15/10/13
f 161/12/14 18/21/14 162/15/14
f 17/23/15 24/18/15 162/15/15
f 19/20/16 11/5/16 12/4/16
f 30/25/137 22/111/137 23/26/137
f 18/38/18 26/27/18 17/29/18
f 24/31/138 17/112/138 25/32/138
f 27/34/20 163/113/20 166/35/20
f 22/111/139 30/25/139 21/37/139
f 31/24/140 23/26/140 24/31/140
f 163/113/23 27/34/23 164/38/23
f 171/33/24 165/35/24 21/37/24
f 34/40/25 168/27/25 170/34/25
f 36/42/26 172/33/26 173/36/26
f 33/43/27 169/28/27 168/27/27
f 176/30/28 169/32/28 33/45/28
f 35/39/29 170/34/29 172/33/29
f 174/25/30 38/46/30 173/36/30
f 41/63/141 48/47/141 33/45/141
f 43/49/32 35/39/32 36/42/32
f 45/51/142 37/41/142 38/46/142
f 40/44/143 48/47/143 39/53/143
f 35/39/35 43/49/35 34/40/35
f 44/48/144 36/42/144 37/41/144
f 39/53/145 47/52/145 38/46/145
f 34/40/146 42/54/146 33/43/146
f 52/57/39 44/48/39 45/51/39
f 54/59/147 46/50/147 47/52/147
f 42/54/148 50/60/148 41/55/148
f 49/114/42 56/62/42 41/63/42
f 51/64/149 43/49/149 44/48/149
f 53/56/44 45/51/44 46/50/44
f 48/47/150 56/62/150 47/52/150
f 43/49/151 51/64/151 42/54/151
f 61/65/152 53/65/152 54/65/152
f 63/65/153 55/65/153 56/65/153
f 51/65/154 59/65/154 50/65/154
f 53/65/155 61/65/155 52/65/155
f 62/65/156 54/65/156 55/65/156
f 50/65/157 58/65/157 49/65/157
f 57/65/158 64/65/158 49/65/158
f 52/65/159 60/65/159 51/65/159
f 70/65/55 62/65/55 63/65/55
f 65/65/56 57/65/56 58/65/56
f 64/65/160 57/65/160 65/65/160
f 60/65/58 68/65/58 59/65/58
f 69/65/59 61/65/59 62/65/59
f 64/65/60 72/65/60 63/65/60
f 66/65/161 58/65/161 59/65/161
f 61/65/62 69/65/62 60/65/62
f 72/65/162 80/65/162 71/65/162
f 74/65/163 66/65/163 67/65/163
f 76/65/164 68/65/164 69/65/164
f 71/65/165 79/65/165 70/65/165
f 73/65/166 65/65/166 66/65/166
f 72/65/167 65/65/167 73/65/167
f 75/65/168 67/65/168 68/65/168
f 70/65/169 78/65/169 69/65/169
f 81/66/71 73/66/71 74/66/71
f 81/66/72 88/66/72 73/66/72
f 83/66/170 75/66/170 76/66/170
f 85/66/74 77/66/74 78/66/74
f 87/66/171 79/66/171 80/66/171
f 75/66/172 83/66/172 74/66/172
f 84/66/77 76/66/77 77/66/77
f 86/66/173 78/66/173 79/66/173
f 90/67/174 82/67/174 83/67/174
f 85/67/175 93/67/175 84/67/175
f 87/67/176 95/67/176 86/67/176
f 82/67/177 90/67/177 81/67/177
f 88/67/178 81/67/178 89/67/178
f 91/67/176 83/67/176 84/67/176
f 93/67/179 85/67/179 86/67/179
f 88/67/180 96/67/180 87/67/180
f 99/67/86 91/67/86 92/67/86
f 94/67/181 102/67/181 93/67/181
f 103/67/88 95/67/88 96/67/88
f 91/67/89 99/67/89 90/67/89
f 100/67/182 92/67/182 93/67/182
f 95/67/91 103/67/91 94/67/91
f 90/67/92 98/67/92 89/67/92
f 97/67/93 104/67/93 89/67/93
f 101/67/98 109/67/98 100/67/98
f 103/67/183 111/67/183 102/67/183
f 98/67/97 106/67/97 97/67/97
f 105/67/184 112/67/184 97/67/184
f 100/67/185 108/67/185 99/67/185
f 102/67/186 110/67/186 101/67/186
f 104/67/96 112/67/96 103/67/96
f 106/67/184 98/67/184 99/67/184
f 117/68/187 109/68/187 110/68/187
f 112/68/188 120/68/188 111/68/188
f 114/68/189 106/68/189 107/68/189
f 109/68/190 117/68/190 108/68/190
f 118/68/191 110/68/191 111/68/191
f 113/68/192 105/68/192 106/68/192
f 112/68/193 105/68/193 113/68/193
f 108/68/194 116/68/194 107/68/194
f 126/68/195 118/68/195 119/68/195
f 121/68/110 113/68/110 114/68/110
f 120/68/111 113/68/111 121/68/111
f 116/68/196 124/68/196 115/68/196
f 125/68/113 117/68/113 118/68/113
f 120/68/197 128/68/197 119/68/197
f 122/68/198 114/68/198 115/68/198
f 117/68/116 125/68/116 116/68/116
f 140/70/117 132/81/117 133/71/117
f 135/82/118 143/72/118 134/74/118
f 137/76/119 129/115/119 130/77/119
f 136/79/120 129/115/120 137/76/120
f 139/80/121 131/83/121 132/81/121
f 134/74/122 142/73/122 133/71/122
f 136/79/123 144/78/123 135/82/123
f 138/75/124 130/77/124 131/83/124
f 138/75/125 146/84/125 137/76/125
f 145/85/125 152/86/125 137/76/125
f 140/70/125 148/87/125 139/80/125
f 142/73/125 150/89/125 141/69/125
f 144/78/125 152/86/125 143/72/125
f 139/80/125 147/88/125 138/75/125
f 141/69/125 149/90/125 140/70/125
f 143/72/125 151/91/125 142/73/125
f 154/93/118 146/84/118 147/88/118
f 156/95/126 148/87/126 149/90/126
f 151/91/124 159/96/124 150/89/124
f 153/98/127 145/85/127 146/84/127
f 152/86/128 145/85/128 153/98/128
f 155/92/123 147/88/123 148/87/123
f 150/89/129 158/97/129 149/90/129
f 152/86/121 160/99/121 151/91/121
f 160/116/199 158/117/199 159/118/199
f 153/119/200 154/100/200 160/116/200
f 160/116/201 157/120/201 158/117/201
f 154/100/125 156/102/125 160/116/125
f 156/102/202 157/120/202 160/116/202
f 132/121/203 131/103/203 38/46/203
f 131/103/204 130/104/204 39/53/204
f 136/106/205 176/30/205 130/104/205
f 176/30/206 40/44/206 130/104/206
f 136/106/207 135/107/207 175/24/207
f 135/107/208 134/109/208 174/25/208
f 132/121/209 38/46/209 133/108/209
f 38/46/210 174/25/210 133/108/210
