# Blender v2.67 (sub 0) OBJ File: 'porch.blend'
# www.blender.org
# texture Porch_Cube wood_texture 
o Porch_Cube
v 0.478236 -0.022351 -1.842016
v 0.830936 -0.022351 -1.842016
v 0.830936 -0.022351 -1.595669
v 0.478236 -0.022351 -1.595669
v 0.478236 0.223995 -1.842016
v 0.830936 0.223995 -1.842016
v 0.830936 0.223995 -1.595669
v 0.478236 0.223995 -1.595669
v 0.524115 0.043190 2.976507
v 0.675871 0.043190 2.976507
v 0.675871 0.043190 3.128263
v 0.524115 0.043190 3.128263
v 0.524115 0.444964 2.976507
v 0.675871 0.444964 2.976507
v 0.675871 0.349345 3.128263
v 0.524115 0.349345 3.128263
v 0.524115 0.170278 2.676412
v 0.675871 0.170278 2.676412
v 0.675871 0.170278 2.828167
v 0.524115 0.170278 2.828167
v 0.524115 0.635797 2.676412
v 0.675871 0.635797 2.676412
v 0.675871 0.476433 2.828167
v 0.524115 0.476433 2.828167
v 0.524115 0.325331 2.361970
v 0.675871 0.325331 2.361970
v 0.675871 0.325331 2.513725
v 0.524115 0.325331 2.513725
v 0.524115 0.631486 2.361970
v 0.675871 0.631486 2.361970
v 0.675871 0.631486 2.513725
v 0.524115 0.631486 2.513725
v 1.231071 0.325331 2.361970
v 1.382828 0.325331 2.361970
v 1.382828 0.325331 2.513725
v 1.231071 0.325331 2.513725
v 1.231071 0.631486 2.361970
v 1.382828 0.631486 2.361970
v 1.382828 0.631486 2.513725
v 1.231071 0.631486 2.513725
v 2.123754 0.325331 2.361970
v 2.275510 0.325331 2.361970
v 2.275510 0.325331 2.513725
v 2.123754 0.325331 2.513725
v 2.123754 0.631486 2.361970
v 2.275510 0.631486 2.361970
v 2.275510 0.631486 2.513725
v 2.123754 0.631486 2.513725
v 2.123754 0.325331 1.443287
v 2.275510 0.325331 1.443287
v 2.275510 0.325331 1.595043
v 2.123754 0.325331 1.595043
v 2.123754 0.631486 1.443287
v 2.275510 0.631486 1.443287
v 2.275510 0.631486 1.595043
v 2.123754 0.631486 1.595043
v 2.123754 0.325331 0.368601
v 2.275510 0.325331 0.368601
v 2.275510 0.325331 0.520357
v 2.123754 0.325331 0.520357
v 2.123754 0.631486 0.368601
v 2.275510 0.631486 0.368601
v 2.275510 0.631486 0.520357
v 2.123754 0.631486 0.520357
v 2.123754 0.325331 -0.636749
v 2.275510 0.325331 -0.636749
v 2.275510 0.325331 -0.484994
v 2.123754 0.325331 -0.484994
v 2.123754 0.631486 -0.636749
v 2.275510 0.631486 -0.636749
v 2.275510 0.631486 -0.484994
v 2.123754 0.631486 -0.484994
v 2.123754 0.325331 -1.399430
v 2.275510 0.325331 -1.399430
v 2.275510 0.325331 -1.247674
v 2.123754 0.325331 -1.247674
v 2.123754 0.631486 -1.399430
v 2.275510 0.631486 -1.399430
v 2.275510 0.631486 -1.247674
v 2.123754 0.631486 -1.247674
v 2.123754 0.325331 -2.266111
v 2.275510 0.325331 -2.266111
v 2.275510 0.325331 -2.114356
v 2.123754 0.325331 -2.114356
v 2.123754 0.631486 -2.266111
v 2.275510 0.631486 -2.266111
v 2.275510 0.631486 -2.114356
v 2.123754 0.631486 -2.114356
v 1.185311 0.325331 -2.266111
v 1.337066 0.325331 -2.266111
v 1.337066 0.325331 -2.114356
v 1.185311 0.325331 -2.114356
v 1.185311 0.631486 -2.266111
v 1.337066 0.631486 -2.266111
v 1.337066 0.631486 -2.114356
v 1.185311 0.631486 -2.114356
v 0.316687 0.325331 -2.266111
v 0.468443 0.325331 -2.266111
v 0.468443 0.325331 -2.114356
v 0.316687 0.325331 -2.114356
v 0.316687 0.631486 -2.266111
v 0.468443 0.631486 -2.266111
v 0.468443 0.631486 -2.114356
v 0.316687 0.631486 -2.114356
v -0.641794 0.325331 -2.266111
v -0.490038 0.325331 -2.266111
v -0.490038 0.325331 -2.114356
v -0.641794 0.325331 -2.114356
v -0.641794 0.631486 -2.266111
v -0.490038 0.631486 -2.266111
v -0.490038 0.631486 -2.114356
v -0.641794 0.631486 -2.114356
v -1.495441 0.325331 -2.266111
v -1.343685 0.325331 -2.266111
v -1.343685 0.325331 -2.114356
v -1.495441 0.325331 -2.114356
v -1.495441 0.631486 -2.266111
v -1.343685 0.631486 -2.266111
v -1.343685 0.631486 -2.114356
v -1.495441 0.631486 -2.114356
v -2.229278 0.325331 -2.266111
v -2.077522 0.325331 -2.266111
v -2.077522 0.325331 -2.114356
v -2.229278 0.325331 -2.114356
v -2.229278 0.631486 -2.266111
v -2.077522 0.631486 -2.266111
v -2.077522 0.631486 -2.114356
v -2.229278 0.631486 -2.114356
v -2.229278 0.325331 -1.457393
v -2.077522 0.325331 -1.457393
v -2.077522 0.325331 -1.305638
v -2.229278 0.325331 -1.305638
v -2.229278 0.631486 -1.457393
v -2.077522 0.631486 -1.457393
v -2.077522 0.631486 -1.305638
v -2.229278 0.631486 -1.305638
v -2.229278 0.325331 -0.558818
v -2.077522 0.325331 -0.558818
v -2.077522 0.325331 -0.407062
v -2.229278 0.325331 -0.407062
v -2.229278 0.631486 -0.558818
v -2.077522 0.631486 -0.558818
v -2.077522 0.631486 -0.407062
v -2.229278 0.631486 -0.407062
v -2.229278 0.325331 0.489521
v -2.077522 0.325331 0.489521
v -2.077522 0.325331 0.641276
v -2.229278 0.325331 0.641276
v -2.229278 0.631486 0.489521
v -2.077522 0.631486 0.489521
v -2.077522 0.631486 0.641276
v -2.229278 0.631486 0.641276
v -2.229278 0.325331 1.518390
v -2.077522 0.325331 1.518390
v -2.077522 0.325331 1.670146
v -2.229278 0.325331 1.670146
v -2.229278 0.631486 1.518390
v -2.077522 0.631486 1.518390
v -2.077522 0.631486 1.670146
v -2.229278 0.631486 1.670146
v -2.306122 0.763087 1.783393
v -2.016766 0.763087 1.783393
v -2.016766 0.763087 -2.329347
v -2.306122 0.763087 -2.329347
v -2.306122 0.602538 1.783393
v -2.016766 0.602538 1.783393
v -2.016766 0.602538 -2.329347
v -2.306122 0.602538 -2.329347
v 0.458531 0.602538 2.316782
v 0.458531 0.763087 2.316782
v 0.458531 0.602538 2.614647
v 0.458531 0.763087 2.614647
v -2.016766 0.763087 -2.037071
v -2.016766 0.602538 -2.037071
v -2.306122 0.763087 -2.037071
v -2.306122 0.602538 -2.037071
v 2.355523 0.602538 -2.037071
v 2.355523 0.763087 -2.037071
v 2.355523 0.602538 -2.329347
v 2.355523 0.763087 -2.329347
v 2.355523 0.763087 2.316782
v 2.026089 0.602538 2.316782
v 2.026089 0.763087 2.316782
v 2.355523 0.602538 2.316782
v 2.355523 0.602538 2.614647
v 2.355523 0.763087 2.614647
v 2.026089 0.602538 2.614647
v 2.026089 0.763087 2.614647
v 2.026089 0.602538 -2.037071
v 2.026089 0.763087 -2.329347
v 2.026089 0.763087 -2.037071
v 2.026089 0.602538 -2.329347
v 0.754583 0.602538 2.316782
v 0.754583 0.763087 2.614647
v 0.754583 0.763087 2.316782
v 0.754583 0.602538 2.614647
v 0.754583 0.123305 3.320420
v 0.754583 0.283854 3.320420
v 0.458531 0.283854 3.320420
v 0.458531 0.123305 3.320420
v -0.781255 -0.050141 2.688328
v 0.777722 -0.050141 2.688328
v 0.777722 -0.050141 3.174599
v -0.781255 -0.050141 3.174599
v -0.781255 0.065601 2.688328
v 0.777722 0.065601 2.688328
v 0.777722 0.065601 3.174599
v -0.781255 0.065601 3.174599
v -0.790652 0.092141 2.426968
v 0.787120 0.092141 2.426968
v 0.787120 0.092141 2.913239
v -0.790652 0.092141 2.913239
v -0.790652 0.207883 2.426968
v 0.787120 0.207883 2.426968
v 0.787120 0.207883 2.913239
v -0.790652 0.207883 2.913239
v -2.241605 -0.022351 -1.842016
v -1.888904 -0.022351 -1.842016
v -1.888904 -0.022351 -1.595669
v -2.241605 -0.022351 -1.595669
v -2.241605 0.223995 -1.842016
v -1.888904 0.223995 -1.842016
v -1.888904 0.223995 -1.595669
v -2.241605 0.223995 -1.595669
v -0.794838 -0.022351 -1.842016
v -0.442137 -0.022351 -1.842016
v -0.442137 -0.022351 -1.595669
v -0.794838 -0.022351 -1.595669
v -0.794838 0.223995 -1.842016
v -0.442137 0.223995 -1.842016
v -0.442137 0.223995 -1.595669
v -0.794838 0.223995 -1.595669
v 1.947674 -0.022351 -1.842016
v 2.300375 -0.022351 -1.842016
v 2.300375 -0.022351 -1.595669
v 1.947674 -0.022351 -1.595669
v 1.947674 0.223995 -1.842016
v 2.300375 0.223995 -1.842016
v 2.300375 0.223995 -1.595669
v 1.947674 0.223995 -1.595669
v -2.241605 -0.022351 -0.667681
v -1.888904 -0.022351 -0.667681
v -1.888904 -0.022351 -0.421335
v -2.241605 -0.022351 -0.421335
v -2.241605 0.223995 -0.667681
v -1.888904 0.223995 -0.667681
v -1.888904 0.223995 -0.421335
v -2.241605 0.223995 -0.421335
v 1.947674 -0.022351 -0.667681
v 2.300375 -0.022351 -0.667681
v 2.300375 -0.022351 -0.421335
v 1.947674 -0.022351 -0.421335
v 1.947674 0.223995 -0.667681
v 2.300375 0.223995 -0.667681
v 2.300375 0.223995 -0.421335
v 1.947674 0.223995 -0.421335
v 1.947674 -0.022351 0.688397
v 2.300375 -0.022351 0.688397
v 2.300375 -0.022351 0.934744
v 1.947674 -0.022351 0.934744
v 1.947674 0.223995 0.688397
v 2.300375 0.223995 0.688397
v 2.300375 0.223995 0.934744
v 1.947674 0.223995 0.934744
v -2.241605 -0.022351 0.688397
v -1.888904 -0.022351 0.688397
v -1.888904 -0.022351 0.934744
v -2.241605 -0.022351 0.934744
v -2.241605 0.223995 0.688397
v -1.888904 0.223995 0.688397
v -1.888904 0.223995 0.934744
v -2.241605 0.223995 0.934744
v 0.478236 -0.022351 1.989688
v 0.830936 -0.022351 1.989688
v 0.830936 -0.022351 2.236035
v 0.478236 -0.022351 2.236035
v 0.478236 0.223995 1.989688
v 0.830936 0.223995 1.989688
v 0.830936 0.223995 2.236035
v 0.478236 0.223995 2.236035
v -2.241605 -0.022351 1.989688
v -1.888904 -0.022351 1.989688
v -1.888904 -0.022351 2.236035
v -2.241605 -0.022351 2.236035
v -2.241605 0.223995 1.989688
v -1.888904 0.223995 1.989688
v -1.888904 0.223995 2.236035
v -2.241605 0.223995 2.236035
v -0.794838 -0.022351 1.989688
v -0.442137 -0.022351 1.989688
v -0.442137 -0.022351 2.236035
v -0.794838 -0.022351 2.236035
v -0.794838 0.223995 1.989688
v -0.442137 0.223995 1.989688
v -0.442137 0.223995 2.236035
v -0.794838 0.223995 2.236035
v 1.947674 -0.022351 1.989688
v 2.300375 -0.022351 1.989688
v 2.300375 -0.022351 2.236035
v 1.947674 -0.022351 2.236035
v 1.947674 0.223995 1.989688
v 2.300375 0.223995 1.989688
v 2.300375 0.223995 2.236035
v 1.947674 0.223995 2.236035
v -2.484954 0.341500 2.632712
v -2.484954 0.341500 -2.483691
v 2.484954 0.341500 2.632712
v 2.484954 0.341500 -2.483691
v -2.484954 0.212701 2.632712
v -2.484954 0.212701 -2.483691
v 2.484954 0.212701 2.632712
v 2.484954 0.212701 -2.483691
vt 0.012583 0.114164
vt 0.108710 0.114164
vt 0.108710 0.890030
vt 0.012583 0.890030
vt 0.009036 0.078328
vt 0.110964 0.078328
vt 0.110964 0.921672
vt 0.009036 0.921672
vt 0.102400 0.672027
vt 0.089805 0.635199
vt 0.082523 0.288041
vt 0.082712 0.704689
vt 0.075431 0.357531
vt 0.102400 0.878533
vt 0.062835 0.320702
vt 0.062836 0.114197
vt 0.035518 0.713293
vt 0.027271 0.663330
vt 0.048106 0.340864
vt 0.012625 0.712403
vt 0.039857 0.290901
vt 0.012625 0.889998
vt 0.062749 0.114197
vt 0.062751 0.291791
vt 1.557046 0.749489
vt 1.492299 0.676021
vt 1.557441 0.676021
vt 1.273571 1.545635
vt 1.214381 1.545635
vt 1.214381 0.764128
vt 1.566578 0.696993
vt 1.606906 0.746452
vt 1.131654 1.132593
vt 1.131654 1.191783
vt 1.098813 1.191783
vt 0.970059 1.545635
vt 0.970058 0.764126
vt 1.002900 0.764126
vt 1.588435 0.676021
vt 1.566786 -0.192268
vt 1.561807 -0.250126
vt 1.609348 -0.236996
vt 1.457573 0.676021
vt 1.457666 -0.165683
vt 1.492392 -0.165683
vt 1.558263 -0.165683
vt 0.910868 0.764126
vt 0.910868 1.545635
vt 0.878026 0.764126
vt 1.579449 0.693440
vt 1.646131 0.676021
vt 1.589315 -0.165683
vt 1.646133 -0.165683
vt 1.580384 -0.190981
vt 1.305430 -0.374535
vt 1.240972 -0.374535
vt 1.232103 -0.434259
vt 0.207466 0.665648
vt 0.158018 0.665648
vt 0.175020 0.448440
vt 1.210129 -0.374535
vt 1.238550 0.478213
vt 1.211272 -0.496675
vt 1.261091 -0.493201
vt 1.140049 -0.374535
vt 1.205706 0.478176
vt 1.307244 0.478076
vt 1.219426 -0.437741
vt 1.106128 -0.374535
vt 1.103269 0.478108
vt 0.166744 0.752390
vt 0.155881 0.733016
vt 0.071572 0.665648
vt 0.131391 0.665648
vt 0.145703 0.733140
vt 0.140146 0.447380
vt 0.245560 0.451967
vt 0.282281 0.456409
vt 0.241789 0.665648
vt 0.136781 0.800846
vt 0.656105 0.360836
vt 0.566351 0.365342
vt 0.560963 -0.002733
vt 0.071571 0.447380
vt 0.374490 0.318285
vt 0.386289 0.297211
vt 0.418846 0.607599
vt 0.361078 0.282349
vt 0.412342 0.719237
vt 0.388512 0.324320
vt 0.412342 0.590220
vt 0.000000 0.272221
vt 1.000000 0.272221
vt 1.000000 0.727779
vt 0.000000 0.727779
vt 0.000000 0.297420
vt 1.000000 0.297420
vt 1.000000 0.702580
vt 0.000000 0.702580
vt 1.690330 1.641934
vt -0.690330 1.641935
vt -0.690330 -0.670561
vt 1.668432 -0.667849
vt 1.672686 1.642208
vt -0.683119 -0.667849
vt 1.273571 0.764128
vt 1.098813 1.132593
vt 1.002900 1.545635
vt 0.878026 1.545635
vt 1.137191 0.478213
vt 0.644103 -0.000083
vt 0.456220 0.645918
vt 1.690330 -0.670561
vt -0.678867 1.642186
vn 0.000000 0.000000 -1.000000
vn 1.000000 -0.000000 0.000000
vn 0.000000 0.000000 1.000000
vn -1.000000 0.000000 0.000000
vn 0.000000 -1.000000 0.000000
vn 0.000000 1.000000 -0.000000
vn 0.000000 0.846059 0.533089
vn 0.000000 0.689607 0.724184
vn -0.000000 0.827304 0.561755
vn 0.000000 -0.827304 -0.561755
s off
f 5/1/1 6/2/1 2/3/1
f 6/1/2 7/2/2 3/3/2
f 7/1/3 8/2/3 4/3/3
f 8/1/4 5/2/4 4/4/4
f 1/1/5 2/2/5 3/3/5
f 8/1/6 7/2/6 6/3/6
f 13/5/1 14/6/1 10/7/1
f 14/5/2 15/6/2 10/8/2
f 15/5/3 16/6/3 12/7/3
f 16/5/4 13/6/4 12/8/4
f 9/5/5 10/6/5 11/7/5
f 16/5/7 15/6/7 14/7/7
f 21/5/1 22/6/1 18/7/1
f 22/5/2 23/6/2 18/8/2
f 23/5/3 24/6/3 20/7/3
f 24/5/4 21/6/4 20/8/4
f 17/5/5 18/6/5 19/7/5
f 24/5/8 23/6/8 22/7/8
f 29/1/1 30/2/1 26/3/1
f 30/1/2 31/2/2 27/3/2
f 31/1/3 32/2/3 28/3/3
f 32/1/4 29/2/4 28/4/4
f 25/1/5 26/2/5 27/3/5
f 32/1/6 31/2/6 30/3/6
f 37/1/1 38/2/1 34/3/1
f 38/1/2 39/2/2 35/3/2
f 39/1/3 40/2/3 36/3/3
f 40/1/4 37/2/4 36/4/4
f 33/1/5 34/2/5 35/3/5
f 40/1/6 39/2/6 38/3/6
f 45/9/1 46/10/1 42/11/1
f 46/10/2 47/12/2 43/13/2
f 47/12/3 48/14/3 44/15/3
f 48/14/4 45/9/4 44/15/4
f 41/16/5 42/11/5 43/13/5
f 48/14/6 47/12/6 46/10/6
f 53/1/1 54/2/1 50/3/1
f 54/1/2 55/2/2 51/3/2
f 55/1/3 56/2/3 52/3/3
f 56/1/4 53/2/4 52/4/4
f 49/1/5 50/2/5 51/3/5
f 56/1/6 55/2/6 54/3/6
f 61/1/1 62/2/1 58/3/1
f 62/1/2 63/2/2 59/3/2
f 63/1/3 64/2/3 60/3/3
f 64/1/4 61/2/4 60/4/4
f 57/1/5 58/2/5 59/3/5
f 64/1/6 63/2/6 62/3/6
f 69/1/1 70/2/1 66/3/1
f 70/1/2 71/2/2 67/3/2
f 71/1/3 72/2/3 68/3/3
f 72/1/4 69/2/4 68/4/4
f 65/1/5 66/2/5 67/3/5
f 72/1/6 71/2/6 70/3/6
f 77/1/1 78/2/1 74/3/1
f 78/1/2 79/2/2 75/3/2
f 79/1/3 80/2/3 76/3/3
f 80/1/4 77/2/4 76/4/4
f 73/1/5 74/2/5 75/3/5
f 80/1/6 79/2/6 78/3/6
f 85/17/1 86/18/1 82/19/1
f 86/18/2 87/20/2 83/21/2
f 87/20/3 88/22/3 84/23/3
f 88/22/4 85/17/4 84/23/4
f 81/24/5 82/19/5 83/21/5
f 88/22/6 87/20/6 86/18/6
f 93/1/1 94/2/1 90/3/1
f 94/1/2 95/2/2 91/3/2
f 95/1/3 96/2/3 92/3/3
f 96/1/4 93/2/4 92/4/4
f 89/1/5 90/2/5 91/3/5
f 96/1/6 95/2/6 94/3/6
f 101/1/1 102/2/1 98/3/1
f 102/1/2 103/2/2 99/3/2
f 103/1/3 104/2/3 100/3/3
f 104/1/4 101/2/4 100/4/4
f 97/1/5 98/2/5 99/3/5
f 104/1/6 103/2/6 102/3/6
f 109/1/1 110/2/1 106/3/1
f 110/1/2 111/2/2 107/3/2
f 111/1/3 112/2/3 108/3/3
f 112/1/4 109/2/4 108/4/4
f 105/1/5 106/2/5 107/3/5
f 112/1/6 111/2/6 110/3/6
f 117/1/1 118/2/1 114/3/1
f 118/1/2 119/2/2 115/3/2
f 119/1/3 120/2/3 116/3/3
f 120/1/4 117/2/4 116/4/4
f 113/1/5 114/2/5 115/3/5
f 120/1/6 119/2/6 118/3/6
f 125/1/1 126/2/1 122/3/1
f 126/1/2 127/2/2 123/3/2
f 127/1/3 128/2/3 124/3/3
f 128/1/4 125/2/4 124/4/4
f 121/1/5 122/2/5 123/3/5
f 128/1/6 127/2/6 126/3/6
f 133/1/1 134/2/1 130/3/1
f 134/1/2 135/2/2 131/3/2
f 135/1/3 136/2/3 132/3/3
f 136/1/4 133/2/4 132/4/4
f 129/1/5 130/2/5 131/3/5
f 136/1/6 135/2/6 134/3/6
f 141/1/1 142/2/1 138/3/1
f 142/1/2 143/2/2 139/3/2
f 143/1/3 144/2/3 140/3/3
f 144/1/4 141/2/4 140/4/4
f 137/1/5 138/2/5 139/3/5
f 144/1/6 143/2/6 142/3/6
f 149/1/1 150/2/1 146/3/1
f 150/1/2 151/2/2 147/3/2
f 151/1/3 152/2/3 148/3/3
f 152/1/4 149/2/4 148/4/4
f 145/1/5 146/2/5 147/3/5
f 152/1/6 151/2/6 150/3/6
f 157/1/1 158/2/1 154/3/1
f 158/1/2 159/2/2 155/3/2
f 159/1/3 160/2/3 156/3/3
f 160/1/4 157/2/4 156/4/4
f 153/1/5 154/2/5 155/3/5
f 160/1/6 159/2/6 158/3/6
f 175/25/6 173/26/6 163/27/6
f 176/28/5 174/29/5 166/30/5
f 175/25/4 164/31/4 176/32/4
f 162/33/3 161/34/3 165/35/3
f 173/36/2 162/37/2 166/38/2
f 164/31/1 163/27/1 167/39/1
f 180/40/2 178/41/2 177/42/2
f 173/26/3 174/43/3 189/44/3
f 191/45/6 190/46/6 163/27/6
f 161/47/4 175/48/4 165/49/4
f 168/50/5 167/39/5 174/51/5
f 161/47/6 162/37/6 173/36/6
f 190/46/1 192/52/1 167/39/1
f 178/41/6 180/40/6 190/46/6
f 189/53/5 192/52/5 179/54/5
f 180/40/1 179/54/1 192/52/1
f 182/55/5 184/56/5 185/57/5
f 174/51/5 167/39/5 192/52/5
f 195/58/6 194/59/6 188/60/6
f 181/61/2 184/56/2 177/62/2
f 188/63/3 187/64/3 185/57/3
f 183/65/6 181/61/6 178/66/6
f 189/67/5 177/62/5 184/56/5
f 188/63/6 186/68/6 181/61/6
f 186/68/2 185/57/2 184/56/2
f 182/69/4 183/65/4 189/70/4
f 170/71/6 172/72/6 194/59/6
f 193/73/5 196/74/5 171/75/5
f 187/76/3 188/60/3 194/59/3
f 183/77/1 182/78/1 193/79/1
f 171/75/4 172/72/4 169/80/4
f 194/81/9 172/82/9 199/83/9
f 182/84/5 187/76/5 196/74/5
f 195/58/1 193/79/1 169/80/1
f 197/85/10 200/86/10 171/87/10
f 200/86/4 199/88/4 172/89/4
f 198/90/2 197/85/2 196/91/2
f 197/85/3 198/90/3 199/88/3
f 205/92/1 206/93/1 202/94/1
f 206/92/2 207/93/2 203/94/2
f 207/92/3 208/93/3 204/94/3
f 208/92/4 205/93/4 204/95/4
f 201/92/5 202/93/5 203/94/5
f 208/92/6 207/93/6 206/94/6
f 213/96/1 214/97/1 210/98/1
f 214/96/2 215/97/2 211/98/2
f 215/96/3 216/97/3 212/98/3
f 216/96/4 213/97/4 212/99/4
f 209/96/5 210/97/5 211/98/5
f 216/96/6 215/97/6 214/98/6
f 221/1/1 222/2/1 218/3/1
f 222/1/2 223/2/2 219/3/2
f 223/1/3 224/2/3 220/3/3
f 224/1/4 221/2/4 220/4/4
f 217/1/5 218/2/5 219/3/5
f 224/1/6 223/2/6 222/3/6
f 229/1/1 230/2/1 226/3/1
f 230/1/2 231/2/2 227/3/2
f 231/1/3 232/2/3 228/3/3
f 232/1/4 229/2/4 228/4/4
f 225/1/5 226/2/5 227/3/5
f 232/1/6 231/2/6 230/3/6
f 237/1/1 238/2/1 234/3/1
f 238/1/2 239/2/2 235/3/2
f 239/1/3 240/2/3 236/3/3
f 240/1/4 237/2/4 236/4/4
f 233/1/5 234/2/5 235/3/5
f 240/1/6 239/2/6 238/3/6
f 245/1/1 246/2/1 241/4/1
f 246/1/2 247/2/2 243/3/2
f 247/1/3 248/2/3 244/3/3
f 248/1/4 245/2/4 244/4/4
f 241/1/5 242/2/5 243/3/5
f 248/1/6 247/2/6 246/3/6
f 253/1/1 254/2/1 249/4/1
f 254/1/2 255/2/2 251/3/2
f 255/1/3 256/2/3 252/3/3
f 256/1/4 253/2/4 252/4/4
f 249/1/5 250/2/5 251/3/5
f 256/1/6 255/2/6 254/3/6
f 261/1/1 262/2/1 257/4/1
f 262/1/2 263/2/2 259/3/2
f 263/1/3 264/2/3 260/3/3
f 264/1/4 261/2/4 260/4/4
f 257/1/5 258/2/5 259/3/5
f 264/1/6 263/2/6 262/3/6
f 269/1/1 270/2/1 265/4/1
f 270/1/2 271/2/2 267/3/2
f 271/1/3 272/2/3 268/3/3
f 272/1/4 269/2/4 268/4/4
f 265/1/5 266/2/5 267/3/5
f 272/1/6 271/2/6 270/3/6
f 277/1/1 278/2/1 274/3/1
f 278/1/2 279/2/2 275/3/2
f 279/1/3 280/2/3 276/3/3
f 280/1/4 277/2/4 276/4/4
f 273/1/5 274/2/5 275/3/5
f 280/1/6 279/2/6 278/3/6
f 285/1/1 286/2/1 282/3/1
f 286/1/2 287/2/2 283/3/2
f 287/1/3 288/2/3 284/3/3
f 288/1/4 285/2/4 284/4/4
f 281/1/5 282/2/5 283/3/5
f 288/1/6 287/2/6 286/3/6
f 293/1/1 294/2/1 290/3/1
f 294/1/2 295/2/2 291/3/2
f 295/1/3 296/2/3 292/3/3
f 296/1/4 293/2/4 292/4/4
f 289/1/5 290/2/5 291/3/5
f 296/1/6 295/2/6 294/3/6
f 301/1/1 302/2/1 298/3/1
f 302/1/2 303/2/2 299/3/2
f 303/1/3 304/2/3 300/3/3
f 304/1/4 301/2/4 300/4/4
f 297/1/5 298/2/5 299/3/5
f 304/1/6 303/2/6 302/3/6
f 307/100/6 308/101/6 306/102/6
f 311/103/5 309/104/5 310/101/5
f 305/104/3 309/104/3 311/103/3
f 307/103/2 311/103/2 312/105/2
f 308/105/1 312/105/1 310/101/1
f 309/104/4 305/104/4 310/101/4
f 1/4/1 5/1/1 2/3/1
f 2/4/2 6/1/2 3/3/2
f 3/4/3 7/1/3 4/3/3
f 5/2/4 1/3/4 4/4/4
f 4/4/5 1/1/5 3/3/5
f 5/4/6 8/1/6 6/3/6
f 9/8/1 13/5/1 10/7/1
f 15/6/2 11/7/2 10/8/2
f 11/8/3 15/5/3 12/7/3
f 13/6/4 9/7/4 12/8/4
f 12/8/5 9/5/5 11/7/5
f 13/8/7 16/5/7 14/7/7
f 17/8/1 21/5/1 18/7/1
f 23/6/2 19/7/2 18/8/2
f 19/8/3 23/5/3 20/7/3
f 21/6/4 17/7/4 20/8/4
f 20/8/5 17/5/5 19/7/5
f 21/8/8 24/5/8 22/7/8
f 25/4/1 29/1/1 26/3/1
f 26/4/2 30/1/2 27/3/2
f 27/4/3 31/1/3 28/3/3
f 29/2/4 25/3/4 28/4/4
f 28/4/5 25/1/5 27/3/5
f 29/4/6 32/1/6 30/3/6
f 33/4/1 37/1/1 34/3/1
f 34/4/2 38/1/2 35/3/2
f 35/4/3 39/1/3 36/3/3
f 37/2/4 33/3/4 36/4/4
f 36/4/5 33/1/5 35/3/5
f 37/4/6 40/1/6 38/3/6
f 41/16/1 45/9/1 42/11/1
f 42/11/2 46/10/2 43/13/2
f 43/13/3 47/12/3 44/15/3
f 45/9/4 41/16/4 44/15/4
f 44/15/5 41/16/5 43/13/5
f 45/9/6 48/14/6 46/10/6
f 49/4/1 53/1/1 50/3/1
f 50/4/2 54/1/2 51/3/2
f 51/4/3 55/1/3 52/3/3
f 53/2/4 49/3/4 52/4/4
f 52/4/5 49/1/5 51/3/5
f 53/4/6 56/1/6 54/3/6
f 57/4/1 61/1/1 58/3/1
f 58/4/2 62/1/2 59/3/2
f 59/4/3 63/1/3 60/3/3
f 61/2/4 57/3/4 60/4/4
f 60/4/5 57/1/5 59/3/5
f 61/4/6 64/1/6 62/3/6
f 65/4/1 69/1/1 66/3/1
f 66/4/2 70/1/2 67/3/2
f 67/4/3 71/1/3 68/3/3
f 69/2/4 65/3/4 68/4/4
f 68/4/5 65/1/5 67/3/5
f 69/4/6 72/1/6 70/3/6
f 73/4/1 77/1/1 74/3/1
f 74/4/2 78/1/2 75/3/2
f 75/4/3 79/1/3 76/3/3
f 77/2/4 73/3/4 76/4/4
f 76/4/5 73/1/5 75/3/5
f 77/4/6 80/1/6 78/3/6
f 81/24/1 85/17/1 82/19/1
f 82/19/2 86/18/2 83/21/2
f 83/21/3 87/20/3 84/23/3
f 85/17/4 81/24/4 84/23/4
f 84/23/5 81/24/5 83/21/5
f 85/17/6 88/22/6 86/18/6
f 89/4/1 93/1/1 90/3/1
f 90/4/2 94/1/2 91/3/2
f 91/4/3 95/1/3 92/3/3
f 93/2/4 89/3/4 92/4/4
f 92/4/5 89/1/5 91/3/5
f 93/4/6 96/1/6 94/3/6
f 97/4/1 101/1/1 98/3/1
f 98/4/2 102/1/2 99/3/2
f 99/4/3 103/1/3 100/3/3
f 101/2/4 97/3/4 100/4/4
f 100/4/5 97/1/5 99/3/5
f 101/4/6 104/1/6 102/3/6
f 105/4/1 109/1/1 106/3/1
f 106/4/2 110/1/2 107/3/2
f 107/4/3 111/1/3 108/3/3
f 109/2/4 105/3/4 108/4/4
f 108/4/5 105/1/5 107/3/5
f 109/4/6 112/1/6 110/3/6
f 113/4/1 117/1/1 114/3/1
f 114/4/2 118/1/2 115/3/2
f 115/4/3 119/1/3 116/3/3
f 117/2/4 113/3/4 116/4/4
f 116/4/5 113/1/5 115/3/5
f 117/4/6 120/1/6 118/3/6
f 121/4/1 125/1/1 122/3/1
f 122/4/2 126/1/2 123/3/2
f 123/4/3 127/1/3 124/3/3
f 125/2/4 121/3/4 124/4/4
f 124/4/5 121/1/5 123/3/5
f 125/4/6 128/1/6 126/3/6
f 129/4/1 133/1/1 130/3/1
f 130/4/2 134/1/2 131/3/2
f 131/4/3 135/1/3 132/3/3
f 133/2/4 129/3/4 132/4/4
f 132/4/5 129/1/5 131/3/5
f 133/4/6 136/1/6 134/3/6
f 137/4/1 141/1/1 138/3/1
f 138/4/2 142/1/2 139/3/2
f 139/4/3 143/1/3 140/3/3
f 141/2/4 137/3/4 140/4/4
f 140/4/5 137/1/5 139/3/5
f 141/4/6 144/1/6 142/3/6
f 145/4/1 149/1/1 146/3/1
f 146/4/2 150/1/2 147/3/2
f 147/4/3 151/1/3 148/3/3
f 149/2/4 145/3/4 148/4/4
f 148/4/5 145/1/5 147/3/5
f 149/4/6 152/1/6 150/3/6
f 153/4/1 157/1/1 154/3/1
f 154/4/2 158/1/2 155/3/2
f 155/4/3 159/1/3 156/3/3
f 157/2/4 153/3/4 156/4/4
f 156/4/5 153/1/5 155/3/5
f 157/4/6 160/1/6 158/3/6
f 164/31/6 175/25/6 163/27/6
f 165/106/5 176/28/5 166/30/5
f 164/31/4 168/50/4 176/32/4
f 166/107/3 162/33/3 165/35/3
f 174/108/2 173/36/2 166/38/2
f 168/50/1 164/31/1 167/39/1
f 179/54/2 180/40/2 177/42/2
f 191/45/3 173/26/3 189/44/3
f 173/26/6 191/45/6 163/27/6
f 175/48/4 176/109/4 165/49/4
f 176/32/5 168/50/5 174/51/5
f 175/48/6 161/47/6 173/36/6
f 163/27/1 190/46/1 167/39/1
f 191/45/6 178/41/6 190/46/6
f 177/42/5 189/53/5 179/54/5
f 190/46/1 180/40/1 192/52/1
f 187/64/5 182/55/5 185/57/5
f 189/53/5 174/51/5 192/52/5
f 183/77/6 195/58/6 188/60/6
f 178/66/2 181/61/2 177/62/2
f 186/68/3 188/63/3 185/57/3
f 191/110/6 183/65/6 178/66/6
f 182/55/5 189/67/5 184/56/5
f 183/65/6 188/63/6 181/61/6
f 181/61/2 186/68/2 184/56/2
f 183/65/4 191/110/4 189/70/4
f 195/58/6 170/71/6 194/59/6
f 169/80/5 193/73/5 171/75/5
f 196/74/3 187/76/3 194/59/3
f 195/58/1 183/77/1 193/79/1
f 172/72/4 170/71/4 169/80/4
f 198/111/9 194/81/9 199/83/9
f 193/73/5 182/84/5 196/74/5
f 170/71/1 195/58/1 169/80/1
f 196/91/10 197/85/10 171/87/10
f 171/87/4 200/86/4 172/89/4
f 194/112/2 198/90/2 196/91/2
f 200/86/3 197/85/3 199/88/3
f 201/95/1 205/92/1 202/94/1
f 202/95/2 206/92/2 203/94/2
f 203/95/3 207/92/3 204/94/3
f 205/93/4 201/94/4 204/95/4
f 204/95/5 201/92/5 203/94/5
f 205/95/6 208/92/6 206/94/6
f 209/99/1 213/96/1 210/98/1
f 210/99/2 214/96/2 211/98/2
f 211/99/3 215/96/3 212/98/3
f 213/97/4 209/98/4 212/99/4
f 212/99/5 209/96/5 211/98/5
f 213/99/6 216/96/6 214/98/6
f 217/4/1 221/1/1 218/3/1
f 218/4/2 222/1/2 219/3/2
f 219/4/3 223/1/3 220/3/3
f 221/2/4 217/3/4 220/4/4
f 220/4/5 217/1/5 219/3/5
f 221/4/6 224/1/6 222/3/6
f 225/4/1 229/1/1 226/3/1
f 226/4/2 230/1/2 227/3/2
f 227/4/3 231/1/3 228/3/3
f 229/2/4 225/3/4 228/4/4
f 228/4/5 225/1/5 227/3/5
f 229/4/6 232/1/6 230/3/6
f 233/4/1 237/1/1 234/3/1
f 234/4/2 238/1/2 235/3/2
f 235/4/3 239/1/3 236/3/3
f 237/2/4 233/3/4 236/4/4
f 236/4/5 233/1/5 235/3/5
f 237/4/6 240/1/6 238/3/6
f 246/2/1 242/3/1 241/4/1
f 242/4/2 246/1/2 243/3/2
f 243/4/3 247/1/3 244/3/3
f 245/2/4 241/3/4 244/4/4
f 244/4/5 241/1/5 243/3/5
f 245/4/6 248/1/6 246/3/6
f 254/2/1 250/3/1 249/4/1
f 250/4/2 254/1/2 251/3/2
f 251/4/3 255/1/3 252/3/3
f 253/2/4 249/3/4 252/4/4
f 252/4/5 249/1/5 251/3/5
f 253/4/6 256/1/6 254/3/6
f 262/2/1 258/3/1 257/4/1
f 258/4/2 262/1/2 259/3/2
f 259/4/3 263/1/3 260/3/3
f 261/2/4 257/3/4 260/4/4
f 260/4/5 257/1/5 259/3/5
f 261/4/6 264/1/6 262/3/6
f 270/2/1 266/3/1 265/4/1
f 266/4/2 270/1/2 267/3/2
f 267/4/3 271/1/3 268/3/3
f 269/2/4 265/3/4 268/4/4
f 268/4/5 265/1/5 267/3/5
f 269/4/6 272/1/6 270/3/6
f 273/4/1 277/1/1 274/3/1
f 274/4/2 278/1/2 275/3/2
f 275/4/3 279/1/3 276/3/3
f 277/2/4 273/3/4 276/4/4
f 276/4/5 273/1/5 275/3/5
f 277/4/6 280/1/6 278/3/6
f 281/4/1 285/1/1 282/3/1
f 282/4/2 286/1/2 283/3/2
f 283/4/3 287/1/3 284/3/3
f 285/2/4 281/3/4 284/4/4
f 284/4/5 281/1/5 283/3/5
f 285/4/6 288/1/6 286/3/6
f 289/4/1 293/1/1 290/3/1
f 290/4/2 294/1/2 291/3/2
f 291/4/3 295/1/3 292/3/3
f 293/2/4 289/3/4 292/4/4
f 292/4/5 289/1/5 291/3/5
f 293/4/6 296/1/6 294/3/6
f 297/4/1 301/1/1 298/3/1
f 298/4/2 302/1/2 299/3/2
f 299/4/3 303/1/3 300/3/3
f 301/2/4 297/3/4 300/4/4
f 300/4/5 297/1/5 299/3/5
f 301/4/6 304/1/6 302/3/6
f 305/113/6 307/100/6 306/102/6
f 312/105/5 311/103/5 310/101/5
f 307/103/3 305/104/3 311/103/3
f 308/105/2 307/103/2 312/105/2
f 306/114/1 308/105/1 310/101/1
f 305/104/4 306/114/4 310/101/4
