# Blender v2.67 (sub 0) OBJ File: 'shelf.blend'
# www.blender.org
# texture Plane.003 wood_texture
o Plane.003
v -2.823495 1.192644 -0.823159
v -2.791404 0.833723 -0.823159
v -2.823495 1.192644 0.654670
v -2.791404 0.833723 0.327241
v -2.435198 0.833723 0.327241
v -3.013628 1.192644 0.654670
v -2.435198 0.833723 -0.823159
v -3.013628 1.192644 -0.823159
v -2.403106 1.192644 0.654670
v -2.403106 1.192644 -0.823159
v -2.791404 0.691315 0.071982
v -2.435198 0.691315 0.071982
v -2.791404 0.691315 -0.823159
v -2.435198 0.691315 -0.823159
v -2.791404 0.135257 -0.451150
v -2.435198 0.135257 -0.451150
v -2.791404 0.135257 -0.823159
v -2.435198 0.135257 -0.823159
v -2.791404 0.008158 -0.823159
v -2.435198 0.008158 -0.823159
v -3.013628 1.383448 0.654670
v -3.013628 1.383448 -0.823159
v 2.221173 1.192644 -0.823158
v 2.189081 0.833723 -0.823159
v 2.221173 1.192644 0.654670
v 2.189081 0.833723 0.327241
v 1.832876 0.833723 0.327241
v 2.411306 1.192644 0.654670
v 1.832876 0.833723 -0.823159
v 2.411306 1.192644 -0.823158
v 1.800784 1.192644 0.654670
v 1.800784 1.192644 -0.823158
v 2.189081 0.691315 0.071982
v 1.832876 0.691315 0.071982
v 2.189081 0.691315 -0.823159
v 1.832876 0.691315 -0.823159
v 2.189081 0.135257 -0.451149
v 1.832876 0.135257 -0.451149
v 2.189081 0.135257 -0.823159
v 1.832876 0.135257 -0.823159
v 2.189081 0.008158 -0.823159
v 1.832876 0.008158 -0.823159
v 2.411306 1.383448 0.654670
v 2.411306 1.383448 -0.823158
v 2.189081 1.075469 0.511187
v 1.832876 1.075469 0.511187
v 2.189081 1.192644 0.511187
v 1.832876 1.192644 0.511187
v -2.791404 1.075469 0.511186
v -2.435198 1.075469 0.511186
v -2.791404 1.192644 0.511186
v -2.435198 1.192644 0.511186
vt 0.452347 0.677936
vt 0.451724 0.669552
vt 0.467083 0.668945
vt -0.129432 0.989304
vt -0.129434 0.162479
vt 0.006383 0.989304
vt 0.681652 0.668945
vt 0.742839 0.680544
vt 0.687273 0.651059
vt 0.692092 0.493432
vt 0.692092 0.519266
vt 0.446553 0.519266
vt 0.467083 0.680544
vt 0.467083 0.623655
vt 0.556255 0.623655
vt 0.467083 0.613303
vt 0.558698 0.595214
vt 0.449107 0.625522
vt 0.447315 0.610274
vt 0.468647 0.584748
vt 0.448831 0.681752
vt 0.465255 0.681756
vt 0.448831 0.670038
vt 1.124807 0.989303
vt 1.037714 0.989303
vt 1.037775 0.162401
vt 0.681945 0.670070
vt 0.743734 0.681792
vt 0.692092 0.545099
vt 0.446553 0.545099
vt 0.684549 0.669998
vt 0.746732 0.681782
vt 0.466490 0.670013
vt 0.466487 0.623986
vt 0.466486 0.613466
vt 0.557110 0.623980
vt 0.555316 0.624317
vt 0.465257 0.670042
vt 0.448831 0.624301
vt 0.448831 0.670039
vt 0.465263 0.624305
vt 0.448831 0.613847
vt 0.465264 0.613851
vt 0.006382 0.162479
vt 0.790535 1.079967
vt 1.037714 1.079967
vt 0.135799 0.061257
vt 0.044153 0.061257
vt 0.042528 0.162479
vt 0.042529 0.989303
vt 0.921648 0.162441
vt 0.921656 0.989297
vt 0.122435 0.989304
vt 1.001626 0.162399
vt 0.489551 0.545099
vt 0.489551 0.570932
vt 0.489551 0.553597
vt 0.515384 0.545099
vt 1.001565 0.989300
vt 0.448831 0.679132
vt 0.448831 0.708300
vt 0.466491 0.681801
vt 0.466486 0.711629
vt 0.788200 0.702107
vt 0.747524 0.665564
vt 0.788200 0.711651
vt 0.801533 0.691454
vt 0.468341 0.711768
vt 0.450466 0.713065
vt 0.122428 0.162448
vt 0.465241 0.711396
vt 0.788258 0.711320
vt 0.446553 0.493432
vt 1.124807 0.162401
vt 0.790588 1.079967
vt 0.790641 1.079967
vt 0.497689 1.079968
vt 0.006383 1.079968
vt 0.006382 0.061257
vt 1.037775 0.061257
vt 0.446553 0.570932
vt 0.515384 0.553597
vt 0.791543 0.701789
vt 0.791548 0.711488
vt 0.804155 0.711651
vt 0.788259 0.701682
vn 0.000000 0.000000 -1.000000
vn -1.000000 -0.000000 -0.000000
vn -0.000000 -0.873287 0.487206
vn -0.000000 1.000000 0.000000
vn 1.000000 0.000000 -0.000000
vn -0.000000 -0.685214 0.728341
vn 0.000000 -0.946294 0.323306
vn -0.000000 -1.000000 -0.000000
vn -0.000000 -0.605539 0.795815
vn -0.000000 0.000000 1.000000
vn 0.000000 0.000001 -1.000000
vn -0.996027 -0.089057 -0.000000
vn 0.995741 -0.089031 0.023948
vn -0.996027 -0.089056 -0.000000
vn -0.000000 -0.605540 0.795815
vn -0.999599 -0.017147 0.022535
vn -0.999711 0.000000 0.024044
s off
f 7/1/1 14/2/1 13/3/1
f 8/4/2 6/5/2 22/6/2
f 12/7/3 5/8/3 11/9/3
f 7/10/4 2/11/4 4/12/4
f 4/8/2 2/13/2 13/3/2
f 12/7/5 14/3/5 7/13/5
f 18/14/5 16/15/5 20/16/5
f 12/7/6 11/9/6 15/17/6
f 14/3/5 12/7/5 16/15/5
f 11/7/2 13/3/2 17/14/2
f 18/18/1 17/14/1 13/3/1
f 18/14/1 20/18/1 19/19/1
f 16/15/7 15/17/7 19/20/7
f 29/21/1 24/22/1 36/23/1
f 30/24/5 44/25/5 43/26/5
f 34/9/3 33/27/3 26/28/3
f 29/11/8 24/29/8 26/30/8
f 26/28/5 33/27/5 24/22/5
f 34/31/2 27/32/2 36/33/2
f 40/34/2 42/35/2 38/36/2
f 34/9/6 38/17/6 37/37/6
f 36/33/2 40/34/2 34/31/2
f 33/27/5 37/37/5 35/38/5
f 40/39/1 36/40/1 39/41/1
f 40/39/1 39/41/1 42/42/1
f 38/17/7 42/20/7 41/43/7
f 44/25/4 22/6/4 21/44/4
f 23/45/1 44/25/1 30/46/1
f 9/47/8 31/47/8 3/48/8
f 1/49/8 3/50/8 6/6/8
f 32/51/8 31/52/8 9/53/8
f 23/54/8 30/26/8 28/25/8
f 41/43/5 39/41/5 37/37/5
f 46/30/9 27/55/9 26/56/9
f 48/57/10 46/55/10 45/58/10
f 48/51/8 47/54/8 25/59/8
f 29/60/11 32/61/11 24/22/11
f 29/62/12 27/32/12 32/63/12
f 32/51/8 48/51/8 31/52/8
f 5/8/9 50/64/9 4/65/9
f 50/64/10 52/66/10 49/67/10
f 10/68/13 52/66/13 7/13/13
f 23/54/8 25/59/8 47/54/8
f 10/1/11 7/69/11 2/68/11
f 9/53/8 3/50/8 52/70/8
f 52/70/8 10/70/8 9/53/8
f 15/15/2 17/14/2 19/16/2
f 1/49/8 51/49/8 3/50/8
f 2/13/14 4/8/14 1/68/14
f 23/71/13 47/72/13 24/22/13
f 2/13/1 7/1/1 13/3/1
f 6/5/2 21/44/2 22/6/2
f 5/8/3 4/65/3 11/9/3
f 5/73/4 7/10/4 4/12/4
f 11/7/2 4/8/2 13/3/2
f 5/8/5 12/7/5 7/13/5
f 16/15/6 12/7/6 15/17/6
f 18/14/5 14/3/5 16/15/5
f 15/15/2 11/7/2 17/14/2
f 14/2/1 18/18/1 13/3/1
f 17/16/1 18/14/1 19/19/1
f 20/16/7 16/15/7 19/20/7
f 24/22/1 35/38/1 36/23/1
f 28/74/5 30/24/5 43/26/5
f 27/65/3 34/9/3 26/28/3
f 27/12/8 29/11/8 26/30/8
f 33/27/5 35/38/5 24/22/5
f 27/32/2 29/62/2 36/33/2
f 33/27/6 34/9/6 37/37/6
f 40/34/2 38/36/2 34/31/2
f 37/37/5 39/41/5 35/38/5
f 36/40/1 35/38/1 39/41/1
f 39/41/1 41/43/1 42/42/1
f 37/37/7 38/17/7 41/43/7
f 43/26/4 44/25/4 21/44/4
f 32/75/1 44/25/1 23/45/1
f 10/76/4 1/77/4 32/75/4
f 1/77/4 8/78/4 32/75/4
f 8/78/1 22/6/1 32/75/1
f 22/6/1 44/25/1 32/75/1
f 3/48/10 21/44/10 6/79/10
f 3/48/10 43/26/10 21/44/10
f 31/47/4 25/47/4 3/48/4
f 25/47/4 28/80/4 3/48/4
f 28/80/10 43/26/10 3/48/10
f 8/44/8 1/49/8 6/6/8
f 10/70/8 32/51/8 9/53/8
f 25/59/8 23/54/8 28/25/8
f 45/81/15 46/30/15 26/56/15
f 47/82/10 48/57/10 45/58/10
f 31/52/8 48/51/8 25/59/8
f 32/61/11 23/71/11 24/22/11
f 27/32/16 46/83/16 32/63/16
f 46/83/17 48/84/17 32/63/17
f 50/64/9 49/67/9 4/65/9
f 52/66/10 51/85/10 49/67/10
f 52/66/5 50/64/5 5/8/5
f 7/13/5 52/66/5 5/8/5
f 1/13/11 10/1/11 2/68/11
f 3/50/8 51/49/8 52/70/8
f 4/8/16 49/64/16 1/68/16
f 49/64/17 51/66/17 1/68/17
f 47/72/5 45/86/5 26/28/5
f 24/22/5 47/72/5 26/28/5
