# Blender v2.67 (sub 0) OBJ File: 'table.blend'
# www.blender.org
# texture Circle_Circle.001 wood_texture
o Circle_Circle.001
v 0.900526 0.056556 0.000332
v 0.786415 0.056556 -0.425537
v 0.474658 0.056556 -0.737294
v 0.048790 0.056556 -0.851405
v -0.377078 0.056556 -0.737294
v -0.688835 0.056556 -0.425537
v -0.802947 0.056556 0.000331
v -0.688836 0.056556 0.426200
v -0.377079 0.056556 0.737957
v 0.048790 0.056556 0.852068
v 0.474658 0.056556 0.737957
v 0.786415 0.056556 0.426200
v 0.900526 0.112802 0.000332
v 0.786415 0.112802 -0.425537
v 0.474658 0.112802 -0.737294
v 0.048790 0.112802 -0.851405
v -0.377078 0.112802 -0.737294
v -0.688835 0.112802 -0.425537
v -0.802947 0.112802 0.000331
v -0.688836 0.112802 0.426200
v -0.377079 0.112802 0.737957
v 0.048790 0.112802 0.852068
v 0.474658 0.112802 0.737957
v 0.786415 0.112802 0.426200
v 0.705783 0.192938 0.000332
v 0.617763 0.192938 -0.328165
v 0.377287 0.192938 -0.568641
v 0.048790 0.192938 -0.656662
v -0.279707 0.192938 -0.568641
v -0.520183 0.192938 -0.328165
v -0.608203 0.192938 0.000331
v -0.520183 0.192938 0.328828
v -0.279707 0.192938 0.569304
v 0.048790 0.192938 0.657325
v 0.377286 0.192938 0.569304
v 0.617763 0.192938 0.328828
v 0.705783 0.544306 0.000332
v 0.617763 0.544306 -0.328165
v 0.377287 0.544306 -0.568641
v 0.048790 0.544306 -0.656662
v -0.279707 0.544306 -0.568641
v -0.520183 0.544306 -0.328165
v -0.608203 0.544306 0.000331
v -0.520183 0.544306 0.328828
v -0.279707 0.544306 0.569304
v 0.048790 0.544306 0.657325
v 0.377286 0.544306 0.569304
v 0.617763 0.544306 0.328828
v 0.894481 0.645960 0.000332
v 0.781180 0.645960 -0.422514
v 0.471636 0.645960 -0.732059
v 0.048790 0.645960 -0.845360
v -0.374056 0.645960 -0.732059
v -0.683600 0.645960 -0.422514
v -0.796901 0.645960 0.000331
v -0.683600 0.645960 0.423177
v -0.374056 0.645960 0.732722
v 0.048790 0.645960 0.846023
v 0.471635 0.645960 0.732722
v 0.781180 0.645960 0.423178
v 0.894481 0.705581 0.000332
v 0.781180 0.705581 -0.422514
v 0.471636 0.705581 -0.732059
v 0.048790 0.705581 -0.845360
v -0.374056 0.705581 -0.732059
v -0.683600 0.705581 -0.422514
v -0.796901 0.705581 0.000331
v -0.683600 0.705581 0.423177
v -0.374056 0.705581 0.732722
v 0.048790 0.705581 0.846023
v 0.471635 0.705581 0.732722
v 0.781180 0.705581 0.423178
vt 0.473632 0.531802
vt 0.474285 0.556800
vt 0.431247 0.576106
vt 0.616834 0.173118
vt 0.572703 0.172958
vt 0.617115 0.123969
vt 0.346765 0.531320
vt 0.388878 0.551702
vt 0.388609 0.575515
vt 0.660725 0.216389
vt 0.661449 0.165653
vt 0.798888 0.500883
vt 0.853496 0.462502
vt 0.854361 0.500714
vt 0.204778 0.261281
vt 0.158182 0.300478
vt 0.204363 0.223729
vt 0.748039 0.500763
vt 0.747715 0.537656
vt 0.248166 0.261403
vt 0.697466 0.468283
vt 0.696632 0.506369
vt 0.291319 0.294573
vt 0.248442 0.223729
vt 0.525310 0.224089
vt 0.572281 0.123970
vt 0.430964 0.553084
vt 0.705835 0.345997
vt 0.749618 0.361598
vt 0.284177 0.419449
vt 0.246819 0.403516
vt 0.574050 0.373767
vt 0.534267 0.416669
vt 0.390153 0.461581
vt 0.429858 0.454939
vt 0.466882 0.449014
vt 0.615464 0.358511
vt 0.353603 0.452095
vt 0.653462 0.379295
vt 0.797336 0.350146
vt 0.843176 0.317942
vt 0.206102 0.415211
vt 0.166989 0.448099
vt 0.654893 0.683276
vt 0.615158 0.722659
vt 0.797513 0.077067
vt 0.841167 0.090407
vt 0.205952 0.694072
vt 0.168703 0.680452
vt 0.749970 0.088248
vt 0.246518 0.682654
vt 0.704186 0.117812
vt 0.285584 0.652465
vt 0.573897 0.737555
vt 0.536011 0.719786
vt 0.390349 0.283211
vt 0.430508 0.276826
vt 0.468604 0.299569
vt 0.351890 0.303525
vt 0.247791 0.839087
vt 0.204702 0.838980
vt 0.694309 -0.029633
vt 0.748478 -0.064942
vt 0.294012 0.803031
vt 0.572626 0.926595
vt 0.529043 0.886897
vt 0.388983 0.182518
vt 0.432015 0.183447
vt 0.477166 0.205350
vt 0.616453 0.926735
vt 0.343333 0.207007
vt 0.663465 0.879697
vt 0.798977 -0.064837
vt 0.849196 -0.035036
vt 0.161852 0.808551
vt 0.616870 0.978616
vt 0.572355 0.978556
vt 0.342573 0.180441
vt 0.388558 0.156761
vt 0.664199 0.933595
vt 0.799290 -0.103842
vt 0.850010 -0.075244
vt 0.204435 0.878811
vt 0.161157 0.849610
vt 0.747998 -0.103887
vt 0.248201 0.878857
vt 0.693464 -0.070091
vt 0.294733 0.844346
vt 0.528336 0.940462
vt 0.432376 0.156761
vt 0.477882 0.179061
vt 0.138332 1.178737
vt -0.132416 0.913841
vt 0.505256 1.272770
vt 0.346097 0.556006
vt 0.799375 0.537656
vt 0.157444 0.261457
vt 0.292030 0.255681
vt 0.524559 0.173184
vt -0.234443 0.549059
vt -0.140410 0.182136
vt 0.124486 -0.088612
vt 0.489268 -0.190639
vt 0.856191 -0.096606
vt 1.126940 0.168290
vt 1.228967 0.533071
vt 1.134934 0.899995
vt 0.870037 1.170744
vn 0.965926 -0.000000 0.258819
vn -0.965926 0.000000 0.258819
vn 0.707107 0.000000 -0.707107
vn -0.707107 0.000000 0.707107
vn 0.258819 0.000000 -0.965926
vn -0.258819 0.000000 0.965926
vn -0.258819 0.000000 -0.965926
vn 0.258818 -0.000000 0.965926
vn -0.707107 0.000000 -0.707107
vn 0.707106 -0.000000 0.707107
vn -0.965926 0.000000 -0.258819
vn 0.965926 0.000000 -0.258819
vn -0.277136 0.919995 -0.277136
vn 0.277135 0.919995 0.277136
vn -0.378574 0.919995 -0.101439
vn 0.378575 0.919995 -0.101439
vn 0.378574 0.919995 0.101439
vn -0.378575 0.919995 0.101439
vn 0.277136 0.919996 -0.277136
vn -0.277136 0.919995 0.277136
vn 0.101439 0.919995 -0.378574
vn -0.101439 0.919995 0.378574
vn -0.101439 0.919995 -0.378575
vn 0.101439 0.919995 0.378575
vn 0.258819 -0.000000 0.965926
vn 0.126066 -0.873357 0.470485
vn -0.344419 -0.873357 -0.344419
vn 0.344418 -0.873356 0.344419
vn -0.470485 -0.873357 -0.126066
vn 0.470485 -0.873356 -0.126066
vn 0.470485 -0.873357 0.126066
vn -0.470485 -0.873357 0.126066
vn 0.344418 -0.873357 -0.344418
vn -0.344419 -0.873357 0.344419
vn 0.126066 -0.873357 -0.470485
vn -0.126066 -0.873357 0.470485
vn -0.126066 -0.873357 -0.470485
vn -0.000000 1.000000 0.000000
vn 0.378574 0.919996 -0.101439
vn 0.378575 0.919995 0.101439
vn -0.378574 0.919995 0.101439
vn 0.277136 0.919995 -0.277136
vn -0.101439 0.919995 -0.378574
vn 0.101438 0.919995 0.378574
vn 0.344418 -0.873357 0.344419
vn 0.470484 -0.873357 -0.126066
vn 0.470485 -0.873356 0.126066
vn 0.344419 -0.873357 -0.344419
s off
f 24/1/1 12/2/1 1/3/1
f 20/4/2 19/5/2 8/6/2
f 15/7/3 14/8/3 2/9/3
f 21/10/4 20/4/4 9/11/4
f 16/12/5 15/13/5 3/14/5
f 22/15/6 21/16/6 10/17/6
f 17/18/7 16/12/7 5/19/7
f 23/20/8 22/15/8 10/17/8
f 18/21/9 17/18/9 6/22/9
f 24/23/10 23/20/10 11/24/10
f 19/5/11 18/25/11 7/26/11
f 14/8/12 13/27/12 1/3/12
f 30/28/13 29/29/13 18/21/13
f 36/30/14 35/31/14 23/20/14
f 31/32/15 30/33/15 19/5/15
f 26/34/16 25/35/16 13/27/16
f 36/36/17 24/1/17 13/27/17
f 32/37/18 31/32/18 20/4/18
f 27/38/19 26/34/19 14/8/19
f 33/39/20 32/37/20 21/10/20
f 28/40/21 27/41/21 15/13/21
f 34/42/22 33/43/22 22/15/22
f 29/29/23 28/40/23 17/18/23
f 35/31/24 34/42/24 22/15/24
f 45/44/4 44/45/4 33/39/4
f 40/46/5 39/47/5 27/41/5
f 46/48/6 45/49/6 34/42/6
f 41/50/7 40/46/7 29/29/7
f 47/51/25 46/48/25 34/42/25
f 42/52/9 41/50/9 30/28/9
f 48/53/10 47/51/10 35/31/10
f 43/54/11 42/55/11 31/32/11
f 38/56/12 37/57/12 25/35/12
f 48/58/1 36/36/1 25/35/1
f 44/45/2 43/54/2 32/37/2
f 39/59/3 38/56/3 26/34/3
f 59/60/26 58/61/26 46/48/26
f 54/62/27 53/63/27 42/52/27
f 60/64/28 59/60/28 47/51/28
f 55/65/29 54/66/29 43/54/29
f 50/67/30 49/68/30 37/57/30
f 60/69/31 48/58/31 37/57/31
f 56/70/32 55/65/32 44/45/32
f 51/71/33 50/67/33 38/56/33
f 57/72/34 56/70/34 45/44/34
f 52/73/35 51/74/35 39/47/35
f 58/61/36 57/75/36 46/48/36
f 53/63/37 52/73/37 41/50/37
f 68/76/2 67/77/2 56/70/2
f 63/78/3 62/79/3 50/67/3
f 69/80/4 68/76/4 57/72/4
f 64/81/5 63/82/5 51/74/5
f 70/83/6 69/84/6 58/61/6
f 65/85/7 64/81/7 53/63/7
f 71/86/25 70/83/25 58/61/25
f 66/87/9 65/85/9 54/62/9
f 72/88/10 71/86/10 59/60/10
f 67/77/11 66/89/11 55/65/11
f 62/79/12 61/90/12 49/68/12
f 72/91/1 60/69/1 49/68/1
f 62/92/38 63/93/38 61/94/38
f 13/27/1 24/1/1 1/3/1
f 19/5/2 7/26/2 8/6/2
f 3/95/3 15/7/3 2/9/3
f 20/4/4 8/6/4 9/11/4
f 4/96/5 16/12/5 3/14/5
f 21/16/6 9/97/6 10/17/6
f 16/12/7 4/96/7 5/19/7
f 11/24/8 23/20/8 10/17/8
f 17/18/9 5/19/9 6/22/9
f 12/98/10 24/23/10 11/24/10
f 18/25/11 6/99/11 7/26/11
f 2/9/12 14/8/12 1/3/12
f 29/29/13 17/18/13 18/21/13
f 24/23/14 36/30/14 23/20/14
f 30/33/15 18/25/15 19/5/15
f 14/8/39 26/34/39 13/27/39
f 25/35/40 36/36/40 13/27/40
f 31/32/41 19/5/41 20/4/41
f 15/7/42 27/38/42 14/8/42
f 32/37/20 20/4/20 21/10/20
f 16/12/21 28/40/21 15/13/21
f 33/43/22 21/16/22 22/15/22
f 28/40/43 16/12/43 17/18/43
f 23/20/44 35/31/44 22/15/44
f 44/45/4 32/37/4 33/39/4
f 28/40/5 40/46/5 27/41/5
f 45/49/6 33/43/6 34/42/6
f 40/46/7 28/40/7 29/29/7
f 35/31/25 47/51/25 34/42/25
f 41/50/9 29/29/9 30/28/9
f 36/30/10 48/53/10 35/31/10
f 42/55/11 30/33/11 31/32/11
f 26/34/12 38/56/12 25/35/12
f 37/57/1 48/58/1 25/35/1
f 43/54/2 31/32/2 32/37/2
f 27/38/3 39/59/3 26/34/3
f 47/51/26 59/60/26 46/48/26
f 53/63/27 41/50/27 42/52/27
f 48/53/45 60/64/45 47/51/45
f 54/66/29 42/55/29 43/54/29
f 38/56/46 50/67/46 37/57/46
f 49/68/47 60/69/47 37/57/47
f 55/65/32 43/54/32 44/45/32
f 39/59/48 51/71/48 38/56/48
f 56/70/34 44/45/34 45/44/34
f 40/46/35 52/73/35 39/47/35
f 57/75/36 45/49/36 46/48/36
f 52/73/37 40/46/37 41/50/37
f 67/77/2 55/65/2 56/70/2
f 51/71/3 63/78/3 50/67/3
f 68/76/4 56/70/4 57/72/4
f 52/73/5 64/81/5 51/74/5
f 69/84/6 57/75/6 58/61/6
f 64/81/7 52/73/7 53/63/7
f 59/60/25 71/86/25 58/61/25
f 65/85/9 53/63/9 54/62/9
f 60/64/10 72/88/10 59/60/10
f 66/89/11 54/66/11 55/65/11
f 50/67/12 62/79/12 49/68/12
f 61/90/1 72/91/1 49/68/1
f 63/93/38 64/100/38 61/94/38
f 64/100/38 65/101/38 61/94/38
f 65/101/38 66/102/38 61/94/38
f 66/102/38 67/103/38 61/94/38
f 67/103/38 68/104/38 61/94/38
f 68/104/38 69/105/38 61/94/38
f 69/105/38 70/106/38 61/94/38
f 70/106/38 71/107/38 72/108/38
f 61/94/38 70/106/38 72/108/38
