# Blender v2.67 (sub 0) OBJ File: 'wall3.blend'
# www.blender.org
# texture Cube wall_texture32x32
o Cube
v 4.456228 -0.162118 0.144759
v 4.456228 3.509090 0.144759
v -3.087004 -0.162118 0.144758
v -3.087004 3.509090 0.144758
v 4.456228 -0.162118 -0.259316
v 4.456228 3.509090 -0.259316
v -3.087004 -0.162118 -0.259317
v -3.087004 3.509090 -0.259317
vt -1.161770 -0.239696
vt 2.125047 -0.239696
vt -1.161770 1.359962
vt -1.172707 1.358263
vt -1.172706 -0.241394
vt 2.114112 -0.241392
vt 2.114111 1.652384
vt -1.172707 1.652382
vt -1.479033 1.358263
vt -1.479032 -0.241394
vt 2.442412 -0.241392
vt 2.442410 1.358266
vt 2.125047 1.359962
vt 2.114111 1.358266
vn -0.000000 -0.000000 1.000000
vn 0.000000 0.000000 -1.000000
vn 0.000000 1.000000 -0.000000
vn 1.000000 0.000000 0.000000
vn -1.000000 0.000000 0.000000
s off
f 2/1/1 4/2/1 1/3/1
f 6/4/2 5/5/2 7/6/2
f 4/7/3 2/8/3 6/4/3
f 2/9/4 1/10/4 5/5/4
f 3/11/5 4/12/5 7/6/5
f 4/2/1 3/13/1 1/3/1
f 8/14/2 6/4/2 7/6/2
f 8/14/3 4/7/3 6/4/3
f 6/4/4 2/9/4 5/5/4
f 4/12/5 8/14/5 7/6/5
